<?xml version="1.0" encoding="UTF-8"?>
<svg xmlns="http://www.w3.org/2000/svg" xmlns:xlink="http://www.w3.org/1999/xlink" width="px" height="px" viewBox="0 0 1250 996" version="1.1">
<g id="surface1">
<path style=" stroke:none;fill-rule:evenodd;fill:rgb(47.45098%,32.156863%,70.196078%);fill-opacity:1;" d="M 259.628906 0.121094 C 188.304688 0.121094 135.53125 62.546875 137.894531 130.246094 C 140.160156 195.289062 137.214844 279.527344 116.007812 348.222656 C 94.726562 417.113281 58.761719 460.765625 0 466.371094 L 0 529.632812 C 58.761719 535.246094 94.726562 578.878906 116.007812 647.777344 C 137.214844 716.472656 140.160156 800.710938 137.890625 865.753906 C 135.527344 933.445312 188.304688 995.882812 259.640625 995.882812 L 990.464844 995.882812 C 1061.789062 995.882812 1114.554688 933.453125 1112.191406 865.753906 C 1109.925781 800.710938 1112.871094 716.472656 1134.078125 647.777344 C 1155.359375 578.878906 1191.238281 535.230469 1250 529.632812 L 1250 466.371094 C 1191.242188 460.753906 1155.359375 417.121094 1134.078125 348.222656 C 1112.867188 279.535156 1109.925781 195.289062 1112.191406 130.246094 C 1114.554688 62.554688 1061.789062 0.121094 990.464844 0.121094 L 259.621094 0.121094 Z M 847.457031 613.074219 C 847.457031 706.296875 777.925781 762.832031 662.53125 762.832031 L 466.101562 762.832031 C 454.398438 762.832031 444.914062 753.347656 444.914062 741.644531 L 444.914062 254.359375 C 444.914062 242.65625 454.398438 233.171875 466.101562 233.171875 L 661.414062 233.171875 C 757.632812 233.171875 820.777344 285.289062 820.777344 365.308594 C 820.777344 421.472656 778.296875 471.753906 724.179688 480.5625 L 724.179688 483.492188 C 797.851562 491.574219 847.457031 542.601562 847.457031 613.074219 Z M 641.113281 300.332031 L 529.109375 300.332031 L 529.109375 458.535156 L 623.445312 458.535156 C 696.371094 458.535156 736.578125 429.167969 736.578125 376.683594 C 736.570312 327.492188 702 300.332031 641.113281 300.332031 Z M 529.109375 521.304688 L 529.109375 695.648438 L 645.234375 695.648438 C 721.164062 695.648438 761.378906 665.183594 761.378906 607.925781 C 761.378906 550.671875 720.035156 521.296875 640.351562 521.296875 L 529.109375 521.296875 Z M 529.109375 521.304688 "/>
</g>
</svg>
