<?xml version="1.0" encoding="UTF-8"?>
<svg xmlns="http://www.w3.org/2000/svg" xmlns:xlink="http://www.w3.org/1999/xlink" width="px" height="px" viewBox="0 0 1092 1250" version="1.1">
<g id="surface1">
<path style=" stroke:none;fill-rule:nonzero;fill:rgb(10.588235%,45.098039%,72.941176%);fill-opacity:1;" d="M 91.4375 1119.054688 L 0 2.097656 L 1092 4.339844 L 995.3125 1119.054688 L 550.121094 1247.902344 Z M 91.4375 1119.054688 "/>
<path style=" stroke:none;fill-rule:nonzero;fill:rgb(10.980392%,53.333333%,78.039216%);fill-opacity:1;" d="M 550.121094 1140.03125 L 550.121094 108.472656 L 999.8125 109.96875 L 919.621094 1032.902344 Z M 550.121094 1140.03125 "/>
<path style=" stroke:none;fill-rule:nonzero;fill:rgb(100%,100%,100%);fill-opacity:1;" d="M 888.140625 240.324219 L 196.367188 240.324219 L 215.105469 375.160156 L 543.375 375.160156 L 220.355469 513.753906 L 239.085938 644.101562 L 715.011719 644.101562 L 697.769531 826.136719 L 536.628906 857.605469 L 390.488281 820.148438 L 379.242188 716.765625 L 245.082031 716.765625 L 263.066406 931.773438 L 550.871094 1011.929688 L 826.6875 924.28125 L 861.914062 504.011719 L 570.351562 504.011719 L 888.128906 372.167969 Z M 888.140625 240.324219 "/>
</g>
</svg>
