<?xml version="1.0" encoding="UTF-8"?>
<svg xmlns="http://www.w3.org/2000/svg" xmlns:xlink="http://www.w3.org/1999/xlink" width="px" height="px" viewBox="0 0 60 30" version="1.1">
<g id="surface1">
<path style=" stroke:none;fill-rule:nonzero;fill:rgb(0%,0%,0%);fill-opacity:1;" d="M 20 20.875 L 20 9.355469 L 20.625 9.355469 L 20.625 11.167969 C 20.699219 11.085938 20.765625 11 20.828125 10.910156 C 21.351562 9.828125 22.453125 9.144531 23.652344 9.15625 C 25.078125 9.117188 26.238281 9.644531 26.917969 10.910156 C 27.796875 12.507812 27.847656 14.433594 27.054688 16.078125 C 26.417969 17.496094 24.851562 18.203125 23.175781 17.945312 C 22.117188 17.855469 21.175781 17.234375 20.675781 16.292969 L 20.675781 20.875 Z M 20.625 13.429688 L 20.765625 14.78125 C 21.011719 16.324219 21.921875 17.234375 23.351562 17.402344 C 24.734375 17.632812 26.089844 16.847656 26.582031 15.535156 C 27.136719 14.210938 27.097656 12.710938 26.472656 11.417969 C 25.949219 10.242188 24.710938 9.558594 23.4375 9.742188 C 22.246094 9.828125 21.242188 10.660156 20.929688 11.8125 C 20.796875 12.34375 20.695312 12.886719 20.625 13.429688 Z M 40.375 14.996094 C 40.179688 16.675781 38.769531 17.949219 37.082031 17.972656 C 34.460938 18.105469 33.230469 16.367188 33.035156 14.359375 C 32.898438 13.265625 33.074219 12.160156 33.542969 11.164062 C 34.214844 9.765625 35.714844 8.964844 37.25 9.179688 C 38.710938 9.304688 39.925781 10.347656 40.273438 11.769531 C 40.40625 12.402344 40.503906 13.042969 40.566406 13.683594 L 33.679688 13.683594 C 33.554688 15.507812 34.53125 16.96875 35.917969 17.324219 C 37.648438 17.75 39.125 17 39.660156 15.359375 C 39.777344 14.9375 39.996094 14.875 40.378906 14.996094 Z M 33.675781 13.101562 L 39.832031 13.101562 C 39.796875 11.164062 38.585938 9.753906 36.949219 9.738281 C 35.097656 9.707031 33.757812 11.058594 33.675781 13.101562 Z M 41.648438 15.039062 L 42.25 15.039062 C 42.296875 15.945312 42.84375 16.75 43.671875 17.125 C 44.703125 17.589844 45.890625 17.554688 46.898438 17.039062 C 47.449219 16.789062 47.789062 16.21875 47.746094 15.613281 C 47.78125 15.027344 47.417969 14.488281 46.863281 14.296875 C 46.199219 14.050781 45.492188 13.914062 44.816406 13.699219 C 44.113281 13.496094 43.421875 13.246094 42.757812 12.945312 C 41.667969 12.414062 41.597656 10.339844 42.832031 9.683594 C 44.117188 8.960938 45.679688 8.9375 46.984375 9.621094 C 47.78125 10.0625 48.222656 10.949219 48.09375 11.851562 L 47.574219 11.851562 C 47.574219 11.824219 47.527344 11.804688 47.527344 11.777344 C 47.464844 10.128906 46.078125 9.613281 44.589844 9.757812 C 44.136719 9.808594 43.710938 9.945312 43.3125 10.144531 C 42.820312 10.371094 42.523438 10.882812 42.570312 11.421875 C 42.574219 11.960938 42.914062 12.441406 43.421875 12.621094 C 44.074219 12.859375 44.761719 13.011719 45.433594 13.199219 L 47.058594 13.625 C 47.816406 13.871094 48.339844 14.5625 48.378906 15.355469 C 48.507812 16.230469 48.0625 17.085938 47.277344 17.484375 C 45.855469 18.289062 43.515625 18.074219 42.472656 17.058594 C 41.941406 16.523438 41.640625 15.792969 41.648438 15.039062 Z M 56.035156 11.851562 L 55.46875 11.851562 C 55.46875 11.773438 55.441406 11.703125 55.433594 11.644531 C 55.414062 10.769531 54.785156 10.027344 53.925781 9.863281 C 53.140625 9.640625 52.300781 9.679688 51.539062 9.980469 C 50.921875 10.15625 50.492188 10.71875 50.488281 11.363281 C 50.464844 11.996094 50.890625 12.558594 51.507812 12.707031 L 54.09375 13.371094 C 54.375 13.4375 54.652344 13.523438 54.921875 13.621094 C 55.746094 13.921875 56.304688 14.6875 56.332031 15.5625 C 56.355469 16.441406 55.839844 17.242188 55.03125 17.582031 C 53.816406 18.136719 52.425781 18.148438 51.199219 17.621094 C 50.179688 17.183594 49.542969 16.152344 49.601562 15.042969 L 50.152344 15.042969 C 50.363281 16.046875 51.050781 16.882812 51.996094 17.277344 C 52.941406 17.671875 54.019531 17.574219 54.878906 17.019531 C 55.402344 16.746094 55.722656 16.191406 55.695312 15.597656 C 55.71875 15.007812 55.355469 14.476562 54.796875 14.289062 C 54.132812 14.042969 53.425781 13.910156 52.75 13.691406 C 52.042969 13.492188 51.347656 13.246094 50.675781 12.945312 C 49.613281 12.421875 49.527344 10.367188 50.742188 9.710938 C 52.042969 8.957031 53.644531 8.9375 54.960938 9.664062 C 55.71875 10.117188 56.136719 10.972656 56.03125 11.847656 Z M 18.972656 17.765625 C 18.511719 17.941406 17.992188 17.742188 17.761719 17.308594 L 15.5625 14.265625 L 15.242188 13.839844 L 12.691406 17.3125 C 12.476562 17.730469 11.984375 17.921875 11.542969 17.761719 L 14.832031 13.351562 L 11.769531 9.363281 C 12.226562 9.199219 12.730469 9.378906 12.984375 9.789062 L 15.261719 12.867188 L 17.558594 9.800781 C 17.773438 9.390625 18.265625 9.207031 18.699219 9.375 L 17.511719 10.949219 L 15.902344 13.042969 C 15.8125 13.125 15.757812 13.238281 15.757812 13.359375 C 15.757812 13.480469 15.8125 13.597656 15.902344 13.675781 L 18.964844 17.765625 Z M 32.9375 9.320312 L 32.9375 9.921875 C 32.066406 9.863281 31.210938 10.175781 30.585938 10.785156 C 29.960938 11.390625 29.621094 12.234375 29.652344 13.109375 C 29.652344 14.507812 29.652344 15.910156 29.652344 17.3125 L 29.652344 17.789062 L 29.042969 17.789062 L 29.042969 9.359375 L 29.644531 9.359375 L 29.644531 11.085938 C 30.378906 9.824219 31.515625 9.359375 32.941406 9.324219 Z M 3.667969 13.296875 L 3.933594 11.972656 C 4.671875 9.355469 7.671875 8.265625 9.734375 9.886719 C 10.941406 10.835938 11.246094 12.179688 11.183594 13.695312 L 4.378906 13.695312 C 4.265625 16.402344 6.21875 18.035156 8.71875 17.199219 C 9.539062 16.902344 10.160156 16.21875 10.363281 15.367188 C 10.496094 14.941406 10.714844 14.867188 11.113281 14.992188 C 10.976562 16.042969 10.371094 16.972656 9.460938 17.515625 C 7.941406 18.347656 6.0625 18.105469 4.800781 16.921875 C 4.195312 16.238281 3.828125 15.371094 3.753906 14.460938 C 3.753906 14.308594 3.707031 14.171875 3.671875 14.035156 C 3.667969 13.78125 3.664062 13.535156 3.664062 13.296875 Z M 4.386719 13.113281 L 10.542969 13.113281 C 10.503906 11.152344 9.265625 9.757812 7.613281 9.746094 C 5.777344 9.722656 4.460938 11.082031 4.382812 13.101562 Z M 4.386719 13.113281 "/>
</g>
</svg>
