<?xml version="1.0" encoding="UTF-8"?>
<svg xmlns="http://www.w3.org/2000/svg" xmlns:xlink="http://www.w3.org/1999/xlink" width="px" height="px" viewBox="0 0 1250 1250" version="1.1">
<g id="surface1">
<rect x="0" y="0" width="1250" height="1250" style="fill:rgb(94.117647%,85.882353%,30.980392%);fill-opacity:1;stroke:none;"/>
<path style=" stroke:none;fill-rule:nonzero;fill:rgb(19.607843%,20%,18.823529%);fill-opacity:1;" d="M 1147.695312 951.878906 C 1138.546875 894.84375 1101.355469 846.957031 991.207031 802.28125 C 952.945312 784.695312 910.289062 772.101562 897.574219 743.109375 C 893.0625 726.234375 892.464844 716.730469 895.320312 706.511719 C 903.515625 673.359375 943.085938 663.023438 974.453125 672.527344 C 994.652344 679.300781 1013.785156 694.867188 1025.308594 719.699219 C 1079.253906 684.769531 1079.136719 685.003906 1116.800781 661.003906 C 1103.019531 639.617188 1095.652344 629.753906 1086.621094 620.605469 C 1054.183594 584.363281 1009.980469 565.710938 939.28125 567.136719 C 927.042969 568.679688 914.6875 570.34375 902.449219 571.886719 C 867.160156 580.800781 833.53125 599.335938 813.808594 624.167969 C 754.632812 691.304688 771.507812 808.816406 843.511719 857.179688 C 914.449219 910.410156 1018.65625 922.53125 1031.964844 972.316406 C 1044.914062 1033.269531 987.167969 1052.996094 929.777344 1045.984375 C 887.476562 1037.191406 863.949219 1015.6875 838.523438 976.59375 C 791.707031 1003.683594 791.707031 1003.683594 743.585938 1031.371094 C 754.992188 1056.324219 766.992188 1067.609375 786.121094 1089.234375 C 876.664062 1181.085938 1103.253906 1176.570312 1143.894531 1037.546875 C 1145.554688 1032.792969 1156.488281 1000.949219 1147.695312 951.878906 Z M 679.539062 574.5 L 562.617188 574.5 C 562.617188 675.5 562.144531 775.785156 562.144531 876.78125 C 562.144531 941.066406 565.472656 1000 555.015625 1018.0625 C 537.90625 1053.585938 493.585938 1049.191406 473.386719 1042.300781 C 452.828125 1032.199219 442.371094 1017.820312 430.253906 997.503906 C 426.925781 991.683594 424.429688 987.167969 423.597656 986.8125 C 391.875 1006.179688 360.265625 1025.664062 328.539062 1045.035156 C 344.34375 1077.472656 367.632812 1105.632812 397.457031 1123.929688 C 442.015625 1150.664062 501.902344 1158.863281 564.519531 1144.484375 C 605.277344 1132.601562 640.445312 1108.007812 658.863281 1070.578125 C 685.480469 1021.507812 679.777344 962.097656 679.539062 896.386719 C 680.132812 789.210938 679.539062 682.035156 679.539062 574.5 Z M 679.539062 574.5 "/>
</g>
</svg>
