<?xml version="1.0" encoding="UTF-8"?>
<svg xmlns="http://www.w3.org/2000/svg" xmlns:xlink="http://www.w3.org/1999/xlink" width="px" height="px" viewBox="0 0 1250 1250" version="1.1">
<g id="surface1">
<path style=" stroke:none;fill-rule:nonzero;fill:rgb(34.901961%,58.823529%,21.176471%);fill-opacity:1;" d="M 575.261719 162.511719 L 602.351562 213.394531 C 608.441406 222.78125 615.039062 231.09375 622.8125 238.832031 C 645.597656 261.335938 666.835938 285.347656 686.382812 310.714844 C 732.28125 370.984375 763.242188 437.914062 785.351562 510.300781 C 798.609375 554.519531 805.808594 599.882812 806.347656 645.75 C 808.570312 782.878906 761.558594 900.628906 666.777344 998.484375 C 651.359375 1014.003906 634.703125 1028.242188 616.976562 1041.054688 C 607.585938 1041.054688 603.144531 1033.855469 599.277344 1027.226562 C 592.226562 1014.929688 587.539062 1001.429688 585.445312 987.414062 C 582.113281 970.824219 579.925781 954.234375 581.003906 937.105469 L 581.003906 929.367188 C 580.242188 927.714844 571.964844 166.414062 575.261719 162.511719 Z M 575.261719 162.511719 "/>
<path style=" stroke:none;fill-rule:nonzero;fill:rgb(42.352941%,67.45098%,28.235294%);fill-opacity:1;" d="M 575.261719 160.832031 C 574.152344 158.613281 573.042969 160.292969 571.933594 161.371094 C 572.472656 172.472656 568.601562 182.371094 562.542969 191.824219 C 555.882812 201.214844 547.0625 208.414062 538.210938 216.152344 C 489.046875 258.722656 450.347656 310.140625 419.355469 367.652344 C 378.117188 445.050781 356.863281 528 350.835938 615.328125 C 348.078125 646.828125 360.796875 757.976562 370.726562 790.046875 C 397.816406 875.1875 446.476562 946.527344 509.503906 1008.445312 C 524.984375 1023.355469 541.542969 1037.183594 558.671875 1050.476562 C 563.652344 1050.476562 564.191406 1046.035156 565.335938 1042.738281 C 567.519531 1035.675781 569.183594 1028.46875 570.3125 1021.167969 L 581.417969 938.25 Z M 575.261719 160.832031 "/>
<path style=" stroke:none;fill-rule:nonzero;fill:rgb(76.078431%,74.901961%,74.901961%);fill-opacity:1;" d="M 602.351562 1074.742188 C 603.460938 1062.054688 609.554688 1051.523438 616.183594 1041.023438 C 609.519531 1038.265625 604.574219 1032.777344 600.703125 1026.652344 C 597.367188 1020.859375 594.605469 1014.75 592.457031 1008.414062 C 584.714844 985.195312 583.066406 960.832031 580.847656 937.105469 L 580.847656 922.738281 C 578.085938 924.957031 577.515625 943.734375 577.515625 946.527344 C 575.902344 971.605469 572.574219 996.542969 567.554688 1021.167969 C 565.90625 1031.125 564.796875 1041.054688 558.671875 1049.90625 C 558.671875 1051.015625 558.671875 1052.125 559.210938 1053.777344 C 569.171875 1083.085938 571.902344 1112.933594 573.582031 1143.355469 L 573.582031 1154.457031 C 573.582031 1167.71875 573.042969 1164.925781 584.050781 1169.367188 C 588.492188 1171.015625 593.4375 1171.585938 597.878906 1174.886719 C 601.210938 1174.886719 601.75 1172.125 601.75 1169.90625 L 600.101562 1151.667969 L 600.101562 1100.785156 C 599.5625 1091.902344 601.210938 1083.085938 602.320312 1074.773438 Z M 602.351562 1074.742188 "/>
</g>
</svg>
