<?xml version="1.0" encoding="UTF-8"?>
<svg xmlns="http://www.w3.org/2000/svg" xmlns:xlink="http://www.w3.org/1999/xlink" width="px" height="px" viewBox="0 0 170 97" version="1.1">
<g id="surface1">
<path style=" stroke:none;fill-rule:nonzero;fill:rgb(0%,0%,0%);fill-opacity:1;" d="M 91.753906 15.851562 C 88.078125 17.042969 85.792969 18.484375 83.710938 20.96875 C 80.433594 24.746094 79.589844 30.3125 81.574219 34.882812 L 82.367188 36.773438 L 104.910156 36.773438 L 100.738281 33.890625 C 95.625 30.363281 93.339844 27.332031 93.339844 24 C 93.339844 21.121094 94.382812 19.230469 96.519531 18.1875 C 99.597656 16.746094 99.945312 16.945312 103.617188 22.660156 C 105.457031 25.542969 107.242188 28.273438 107.589844 28.722656 C 108.136719 29.46875 108.582031 29.167969 111.910156 25.839844 C 113.996094 23.804688 115.683594 21.914062 115.683594 21.566406 C 115.683594 20.820312 112.160156 18.089844 109.128906 16.496094 C 106.796875 15.304688 105.953125 15.15625 100.539062 15.058594 C 95.824219 14.957031 93.988281 15.105469 91.753906 15.851562 Z M 91.753906 15.851562 "/>
<path style=" stroke:none;fill-rule:nonzero;fill:rgb(0%,0%,0%);fill-opacity:1;" d="M 54.117188 17.144531 C 54.117188 18.238281 54.316406 18.386719 56.105469 18.386719 L 58.089844 18.386719 L 58.089844 36.773438 L 70.503906 36.773438 L 70.503906 18.386719 L 72.238281 18.386719 C 73.777344 18.386719 73.976562 18.238281 73.976562 17.144531 L 73.976562 15.902344 L 54.117188 15.902344 Z M 54.117188 17.144531 "/>
<path style=" stroke:none;fill-rule:nonzero;fill:rgb(0%,0%,0%);fill-opacity:1;" d="M 4.765625 40.597656 C 4.617188 40.746094 4.46875 42.238281 4.46875 43.828125 C 4.46875 46.066406 4.617188 46.710938 5.214844 46.710938 C 5.808594 46.710938 5.957031 46.066406 5.957031 43.777344 C 5.957031 40.996094 5.511719 39.851562 4.765625 40.597656 Z M 4.765625 40.597656 "/>
<path style=" stroke:none;fill-rule:nonzero;fill:rgb(0%,0%,0%);fill-opacity:1;" d="M 12.414062 40.746094 C 12.414062 42.289062 14.148438 46.710938 14.746094 46.710938 C 15.09375 46.710938 15.640625 46.113281 15.9375 45.320312 C 16.1875 44.574219 16.535156 43.628906 16.683594 43.234375 C 16.878906 42.734375 17.226562 43.234375 17.726562 44.574219 C 18.121094 45.765625 18.765625 46.710938 19.113281 46.710938 C 19.859375 46.710938 21.996094 40.898438 21.347656 40.5 C 20.851562 40.203125 20.652344 40.449219 19.859375 42.984375 C 19.164062 45.121094 19.164062 45.121094 17.875 41.542969 C 17.476562 40.398438 17.226562 40.25 16.632812 40.746094 C 16.285156 41.046875 15.789062 41.992188 15.640625 42.785156 C 15.441406 43.582031 15.144531 44.226562 14.894531 44.226562 C 14.648438 44.226562 14.347656 43.582031 14.148438 42.785156 C 13.800781 41.195312 12.414062 39.605469 12.414062 40.746094 Z M 12.414062 40.746094 "/>
<path style=" stroke:none;fill-rule:nonzero;fill:rgb(0%,0%,0%);fill-opacity:1;" d="M 28.300781 43.429688 C 28.300781 45.269531 28.5 46.710938 28.796875 46.710938 C 29.09375 46.710938 29.292969 45.417969 29.292969 43.777344 C 29.292969 42.140625 29.09375 40.648438 28.796875 40.5 C 28.5 40.300781 28.300781 41.394531 28.300781 43.429688 Z M 28.300781 43.429688 "/>
<path style=" stroke:none;fill-rule:nonzero;fill:rgb(0%,0%,0%);fill-opacity:1;" d="M 36.589844 40.550781 C 36.394531 40.746094 36.246094 42.238281 36.246094 43.828125 C 36.246094 46.066406 36.394531 46.710938 36.988281 46.710938 C 37.535156 46.710938 37.734375 46.164062 37.734375 44.824219 L 37.785156 42.984375 L 39.273438 44.824219 C 40.117188 45.867188 41.011719 46.710938 41.257812 46.710938 C 41.507812 46.710938 41.707031 45.269531 41.707031 43.480469 C 41.707031 41.640625 41.507812 40.25 41.210938 40.25 C 40.960938 40.25 40.710938 41.195312 40.710938 42.339844 L 40.664062 44.476562 L 38.824219 42.339844 C 37.832031 41.144531 36.789062 40.351562 36.589844 40.550781 Z M 36.589844 40.550781 "/>
<path style=" stroke:none;fill-rule:nonzero;fill:rgb(0%,0%,0%);fill-opacity:1;" d="M 49.152344 41.144531 C 47.8125 42.238281 48.257812 43.480469 50.195312 44.027344 C 52.082031 44.574219 51.882812 45.46875 49.898438 45.519531 C 47.8125 45.519531 48.0625 46.414062 50.195312 46.613281 C 53.421875 46.859375 54.167969 44.226562 51.140625 43.132812 C 49.300781 42.535156 49.449219 41.445312 51.335938 41.59375 C 52.777344 41.691406 53.074219 41.046875 51.835938 40.550781 C 50.691406 40.101562 50.34375 40.152344 49.152344 41.144531 Z M 49.152344 41.144531 "/>
<path style=" stroke:none;fill-rule:nonzero;fill:rgb(0%,0%,0%);fill-opacity:1;" d="M 59.578125 43.480469 L 59.578125 46.710938 L 61.8125 46.710938 C 63.054688 46.710938 64.046875 46.460938 64.046875 46.214844 C 64.046875 45.914062 63.253906 45.71875 62.308594 45.71875 C 61.117188 45.71875 60.574219 45.46875 60.574219 44.972656 C 60.574219 44.476562 61.070312 44.226562 62.0625 44.226562 C 63.898438 44.226562 64.046875 43.332031 62.210938 43.132812 C 60.125 42.882812 60.175781 41.742188 62.261719 41.742188 C 63.5 41.742188 64.046875 41.542969 64.046875 40.996094 C 64.046875 40.449219 63.453125 40.25 61.8125 40.25 L 59.578125 40.25 Z M 59.578125 43.480469 "/>
<path style=" stroke:none;fill-rule:nonzero;fill:rgb(0%,0%,0%);fill-opacity:1;" d="M 71 43.480469 C 71 45.320312 71.199219 46.710938 71.496094 46.710938 C 71.792969 46.710938 71.992188 46.265625 71.992188 45.71875 C 71.992188 45.171875 72.339844 44.722656 72.738281 44.722656 C 73.132812 44.722656 73.730469 45.171875 74.078125 45.71875 C 74.921875 47.058594 76.210938 47.109375 75.46875 45.71875 C 75.121094 45.023438 75.121094 44.476562 75.515625 43.828125 C 76.3125 42.535156 75.765625 41.34375 74.226562 40.746094 C 71.347656 39.65625 71 39.953125 71 43.480469 Z M 74.722656 42.734375 C 74.722656 43.183594 74.175781 43.53125 73.382812 43.628906 C 72.238281 43.777344 71.992188 43.582031 71.992188 42.734375 C 71.992188 41.890625 72.238281 41.691406 73.382812 41.839844 C 74.175781 41.941406 74.722656 42.289062 74.722656 42.734375 Z M 74.722656 42.734375 "/>
<path style=" stroke:none;fill-rule:nonzero;fill:rgb(0%,0%,0%);fill-opacity:1;" d="M 90.609375 41.046875 C 89.417969 42.238281 89.914062 43.429688 91.753906 43.976562 C 94.035156 44.625 93.886719 45.914062 91.554688 45.566406 C 90.3125 45.371094 89.867188 45.46875 90.015625 45.867188 C 90.113281 46.214844 90.957031 46.511719 91.949219 46.613281 C 95.078125 46.859375 95.875 43.929688 92.796875 43.234375 C 91.105469 42.835938 91.207031 41.445312 92.992188 41.640625 C 94.433594 41.792969 94.832031 41.046875 93.539062 40.550781 C 92.296875 40.050781 91.453125 40.203125 90.609375 41.046875 Z M 90.609375 41.046875 "/>
<path style=" stroke:none;fill-rule:nonzero;fill:rgb(0%,0%,0%);fill-opacity:1;" d="M 101.832031 43.332031 C 101.035156 45.070312 100.640625 46.5625 100.9375 46.660156 C 101.1875 46.761719 101.632812 46.460938 101.878906 46.015625 C 102.476562 44.921875 105.058594 44.972656 105.703125 46.066406 C 105.953125 46.5625 106.347656 46.808594 106.546875 46.613281 C 106.996094 46.164062 104.511719 40.597656 103.765625 40.351562 C 103.519531 40.25 102.625 41.59375 101.832031 43.332031 Z M 104.414062 43.234375 C 104.613281 43.976562 104.414062 44.226562 103.71875 44.226562 C 102.675781 44.226562 102.625 44.175781 103.074219 43.035156 C 103.46875 41.941406 104.113281 42.039062 104.414062 43.234375 Z M 104.414062 43.234375 "/>
<path style=" stroke:none;fill-rule:nonzero;fill:rgb(0%,0%,0%);fill-opacity:1;" d="M 113.199219 43.480469 C 113.199219 45.320312 113.398438 46.710938 113.699219 46.710938 C 113.996094 46.710938 114.195312 45.765625 114.195312 44.574219 L 114.195312 42.488281 L 115.980469 44.574219 C 116.972656 45.765625 117.96875 46.710938 118.214844 46.710938 C 118.464844 46.710938 118.664062 45.269531 118.664062 43.480469 C 118.664062 41.640625 118.464844 40.25 118.164062 40.25 C 117.917969 40.25 117.667969 41.195312 117.667969 42.339844 L 117.667969 44.476562 L 115.632812 42.339844 C 114.542969 41.195312 113.546875 40.25 113.398438 40.25 C 113.300781 40.25 113.199219 41.691406 113.199219 43.480469 Z M 113.199219 43.480469 "/>
<path style=" stroke:none;fill-rule:nonzero;fill:rgb(0%,0%,0%);fill-opacity:1;" d="M 126.40625 41.292969 C 124.820312 42.535156 124.71875 44.324219 126.160156 45.765625 C 127.25 46.859375 130.082031 46.960938 130.480469 45.867188 C 130.578125 45.417969 130.230469 45.320312 129.1875 45.519531 C 128.195312 45.71875 127.5 45.566406 126.953125 44.972656 C 125.863281 43.929688 125.910156 43.429688 127.101562 42.238281 C 127.898438 41.445312 128.34375 41.34375 129.335938 41.742188 C 130.28125 42.089844 130.578125 42.039062 130.578125 41.542969 C 130.578125 41.144531 130.082031 40.746094 129.484375 40.550781 C 127.898438 40.152344 127.898438 40.152344 126.40625 41.292969 Z M 126.40625 41.292969 "/>
<path style=" stroke:none;fill-rule:nonzero;fill:rgb(0%,0%,0%);fill-opacity:1;" d="M 137.332031 40.597656 C 137.183594 40.746094 137.03125 42.238281 137.03125 43.828125 C 137.03125 46.066406 137.183594 46.710938 137.777344 46.710938 C 138.222656 46.710938 138.523438 46.265625 138.523438 45.46875 C 138.523438 44.425781 138.769531 44.226562 140.011719 44.226562 C 141.253906 44.226562 141.5 44.425781 141.5 45.46875 C 141.5 46.265625 141.800781 46.710938 142.246094 46.710938 C 142.890625 46.710938 142.992188 46.164062 142.890625 43.582031 C 142.742188 40.550781 141.898438 39.503906 141.601562 41.992188 C 141.453125 42.984375 141.152344 43.234375 139.960938 43.234375 C 138.769531 43.234375 138.523438 43.035156 138.523438 42.039062 C 138.523438 40.746094 137.925781 40.050781 137.332031 40.597656 Z M 137.332031 40.597656 "/>
<path style=" stroke:none;fill-rule:nonzero;fill:rgb(0%,0%,0%);fill-opacity:1;" d="M 149.941406 43.429688 L 149.941406 46.710938 L 152.175781 46.710938 C 153.417969 46.710938 154.410156 46.460938 154.410156 46.214844 C 154.410156 45.914062 153.617188 45.71875 152.671875 45.71875 C 151.480469 45.71875 150.933594 45.46875 150.933594 44.972656 C 150.933594 44.476562 151.429688 44.226562 152.425781 44.226562 C 153.269531 44.226562 153.914062 43.976562 153.914062 43.730469 C 153.914062 43.429688 153.269531 43.234375 152.425781 43.234375 C 150.339844 43.234375 150.4375 41.839844 152.574219 41.640625 C 154.855469 41.445312 154.507812 40.550781 152.078125 40.351562 L 149.941406 40.203125 Z M 149.941406 43.429688 "/>
<path style=" stroke:none;fill-rule:nonzero;fill:rgb(0%,0%,0%);fill-opacity:1;" d="M 160.714844 40.550781 C 160.121094 41.195312 160.914062 41.742188 162.402344 41.742188 L 163.894531 41.742188 L 162.15625 43.929688 C 161.164062 45.070312 160.367188 46.214844 160.367188 46.414062 C 160.367188 46.5625 161.609375 46.710938 163.097656 46.710938 C 166.128906 46.710938 166.871094 45.867188 164.042969 45.617188 L 162.203125 45.46875 L 164.042969 43.332031 C 165.035156 42.140625 165.679688 40.945312 165.53125 40.699219 C 165.234375 40.203125 161.210938 40.101562 160.714844 40.550781 Z M 160.714844 40.550781 "/>
<path style=" stroke:none;fill-rule:nonzero;fill:rgb(0%,0%,0%);fill-opacity:1;" d="M 57.992188 56.996094 L 57.839844 63.359375 L 56.003906 63.507812 C 54.367188 63.65625 54.117188 63.855469 54.117188 64.898438 L 54.117188 66.089844 L 73.976562 66.089844 L 73.976562 64.847656 C 73.976562 63.753906 73.777344 63.605469 72.238281 63.605469 L 70.503906 63.605469 L 70.503906 50.6875 L 58.140625 50.6875 Z M 57.992188 56.996094 "/>
<path style=" stroke:none;fill-rule:nonzero;fill:rgb(0%,0%,0%);fill-opacity:1;" d="M 81.824219 53.765625 L 77.949219 56.75 L 78.84375 58.238281 C 80.285156 60.773438 84.75 64.453125 87.78125 65.695312 C 90.214844 66.636719 91.503906 66.835938 96.816406 66.835938 C 102.128906 66.835938 103.421875 66.636719 105.851562 65.695312 C 111.464844 63.457031 115.433594 58.390625 115.78125 53.121094 L 115.933594 50.933594 L 108.085938 50.785156 L 100.242188 50.636719 L 101.335938 52.128906 C 101.929688 52.921875 102.527344 54.5625 102.625 55.804688 C 102.972656 58.933594 101.136719 62.117188 98.15625 63.558594 C 96.964844 64.152344 95.675781 64.601562 95.277344 64.601562 C 94.582031 64.601562 90.808594 58.636719 88.175781 53.269531 C 87.433594 51.878906 86.589844 50.6875 86.242188 50.6875 C 85.941406 50.734375 83.90625 52.078125 81.824219 53.765625 Z M 81.824219 53.765625 "/>
<path style=" stroke:none;fill-rule:nonzero;fill:rgb(0%,0%,0%);fill-opacity:1;" d="M 54.464844 71.90625 C 54.265625 72.054688 54.117188 72.949219 54.117188 73.894531 C 54.117188 75.285156 54.316406 75.53125 55.261719 75.53125 C 57.496094 75.53125 58.488281 73.046875 56.648438 72.054688 C 55.507812 71.457031 54.914062 71.410156 54.464844 71.90625 Z M 56.75 73.246094 C 56.996094 73.941406 56.253906 75.035156 55.507812 75.035156 C 55.308594 75.035156 55.109375 74.488281 55.109375 73.792969 C 55.109375 72.453125 56.300781 72.054688 56.75 73.246094 Z M 56.75 73.246094 "/>
<path style=" stroke:none;fill-rule:nonzero;fill:rgb(0%,0%,0%);fill-opacity:1;" d="M 62.410156 71.90625 C 62.210938 72.054688 62.0625 72.949219 62.0625 73.894531 C 62.0625 75.382812 62.210938 75.53125 63.453125 75.484375 C 64.246094 75.433594 64.445312 75.335938 63.949219 75.183594 C 63.453125 75.085938 63.054688 74.789062 63.054688 74.539062 C 63.054688 74.289062 63.453125 73.992188 63.949219 73.894531 C 64.742188 73.695312 64.742188 73.644531 63.949219 73.59375 C 62.855469 73.546875 62.757812 72.550781 63.800781 72.550781 C 64.195312 72.550781 64.542969 72.304688 64.542969 72.054688 C 64.542969 71.507812 62.90625 71.359375 62.410156 71.90625 Z M 62.410156 71.90625 "/>
<path style=" stroke:none;fill-rule:nonzero;fill:rgb(0%,0%,0%);fill-opacity:1;" d="M 69.011719 71.953125 C 69.011719 72.949219 70.15625 75.53125 70.550781 75.53125 C 71.097656 75.53125 71.992188 73.347656 71.941406 72.152344 C 71.941406 71.65625 71.695312 71.855469 71.394531 72.652344 C 70.851562 74.242188 70.003906 74.488281 70.003906 73.097656 C 70.003906 72.550781 69.808594 71.953125 69.507812 71.804688 C 69.261719 71.65625 69.011719 71.707031 69.011719 71.953125 Z M 69.011719 71.953125 "/>
<path style=" stroke:none;fill-rule:nonzero;fill:rgb(0%,0%,0%);fill-opacity:1;" d="M 76.808594 71.90625 C 76.609375 72.054688 76.460938 72.949219 76.460938 73.894531 C 76.460938 75.382812 76.609375 75.53125 77.851562 75.484375 C 78.644531 75.433594 78.84375 75.335938 78.347656 75.183594 C 77.851562 75.085938 77.453125 74.789062 77.453125 74.539062 C 77.453125 74.289062 77.851562 73.992188 78.347656 73.894531 C 79.140625 73.695312 79.140625 73.644531 78.347656 73.59375 C 77.253906 73.546875 77.15625 72.550781 78.199219 72.550781 C 78.59375 72.550781 78.941406 72.304688 78.941406 72.054688 C 78.941406 71.507812 77.304688 71.359375 76.808594 71.90625 Z M 76.808594 71.90625 "/>
<path style=" stroke:none;fill-rule:nonzero;fill:rgb(0%,0%,0%);fill-opacity:1;" d="M 83.808594 71.855469 C 83.558594 72.054688 83.410156 72.949219 83.410156 73.894531 C 83.410156 75.382812 83.558594 75.53125 84.800781 75.484375 C 85.546875 75.433594 85.792969 75.335938 85.296875 75.183594 C 84.75 75.035156 84.402344 74.339844 84.304688 73.195312 C 84.207031 72.253906 84.007812 71.65625 83.808594 71.855469 Z M 83.808594 71.855469 "/>
<path style=" stroke:none;fill-rule:nonzero;fill:rgb(0%,0%,0%);fill-opacity:1;" d="M 90.859375 72.253906 C 90.5625 72.652344 90.363281 73.496094 90.460938 74.140625 C 90.5625 75.035156 90.910156 75.285156 92.101562 75.285156 C 93.292969 75.285156 93.640625 75.035156 93.738281 74.140625 C 94.035156 72.054688 92.101562 70.761719 90.859375 72.253906 Z M 93.191406 73.347656 C 93.339844 73.742188 93.242188 74.339844 92.945312 74.636719 C 92.199219 75.382812 90.808594 74.242188 91.207031 73.246094 C 91.554688 72.304688 92.796875 72.351562 93.191406 73.347656 Z M 93.191406 73.347656 "/>
<path style=" stroke:none;fill-rule:nonzero;fill:rgb(0%,0%,0%);fill-opacity:1;" d="M 98.652344 71.90625 C 98.109375 72.402344 98.257812 75.53125 98.800781 75.53125 C 99.101562 75.53125 99.300781 75.183594 99.300781 74.789062 C 99.300781 74.390625 99.648438 74.042969 100.042969 74.042969 C 100.492188 74.042969 100.9375 73.695312 101.136719 73.246094 C 101.582031 72.105469 99.546875 71.011719 98.652344 71.90625 Z M 100.539062 73.046875 C 100.390625 73.296875 100.042969 73.546875 99.746094 73.546875 C 99.496094 73.546875 99.300781 73.296875 99.300781 73.046875 C 99.300781 72.75 99.648438 72.550781 100.09375 72.550781 C 100.492188 72.550781 100.6875 72.75 100.539062 73.046875 Z M 100.539062 73.046875 "/>
<path style=" stroke:none;fill-rule:nonzero;fill:rgb(0%,0%,0%);fill-opacity:1;" d="M 106.101562 71.90625 C 105.902344 72.054688 105.753906 72.949219 105.753906 73.894531 C 105.753906 75.433594 105.851562 75.53125 107.390625 75.484375 C 108.535156 75.433594 108.683594 75.335938 107.886719 75.183594 C 106.546875 74.9375 106.398438 74.191406 107.640625 73.894531 C 108.433594 73.695312 108.433594 73.644531 107.640625 73.59375 C 106.546875 73.546875 106.449219 72.550781 107.492188 72.550781 C 107.886719 72.550781 108.234375 72.304688 108.234375 72.054688 C 108.234375 71.507812 106.597656 71.359375 106.101562 71.90625 Z M 106.101562 71.90625 "/>
<path style=" stroke:none;fill-rule:nonzero;fill:rgb(0%,0%,0%);fill-opacity:1;" d="M 113.050781 71.90625 C 112.503906 72.402344 112.65625 75.53125 113.199219 75.53125 C 113.5 75.53125 113.699219 75.136719 113.699219 74.636719 C 113.746094 73.84375 113.746094 73.84375 114.242188 74.636719 C 114.492188 75.136719 115.136719 75.53125 115.585938 75.53125 C 116.328125 75.484375 116.328125 75.433594 115.535156 74.984375 C 114.839844 74.589844 114.738281 74.289062 115.238281 73.742188 C 116.179688 72.550781 114.144531 70.8125 113.050781 71.90625 Z M 114.691406 73.046875 C 114.691406 73.296875 114.492188 73.546875 114.195312 73.546875 C 113.945312 73.546875 113.699219 73.296875 113.699219 73.046875 C 113.699219 72.75 113.945312 72.550781 114.195312 72.550781 C 114.492188 72.550781 114.691406 72.75 114.691406 73.046875 Z M 114.691406 73.046875 "/>
</g>
</svg>
