<?xml version="1.0" standalone="no"?>
<!DOCTYPE svg PUBLIC "-//W3C//DTD SVG 20010904//EN"
 "http://www.w3.org/TR/2001/REC-SVG-20010904/DTD/svg10.dtd">
<svg version="1.0" xmlns="http://www.w3.org/2000/svg"
 width="342.000000pt" height="195.000000pt" viewBox="0 0 342.000000 195.000000"
 preserveAspectRatio="xMidYMid meet">

<g transform="translate(0.000000,195.000000) scale(0.100000,-0.100000)"
fill="#000000" stroke="none">
<path d="M1848 1631 c-74 -24 -120 -53 -162 -103 -66 -76 -83 -188 -43 -280
l16 -38 227 0 227 0 -84 58 c-103 71 -149 132 -149 199 0 58 21 96 64 117 62
29 69 25 143 -90 37 -58 73 -113 80 -122 11 -15 20 -9 87 58 42 41 76 79 76
86 0 15 -71 70 -132 102 -47 24 -64 27 -173 29 -95 2 -132 -1 -177 -16z"/>
<path d="M1090 1605 c0 -22 4 -25 40 -25 l40 0 0 -185 0 -185 125 0 125 0 0
185 0 185 35 0 c31 0 35 3 35 25 l0 25 -200 0 -200 0 0 -25z"/>
<path d="M96 1133 c-3 -3 -6 -33 -6 -65 0 -45 3 -58 15 -58 12 0 15 13 15 59
0 56 -9 79 -24 64z"/>
<path d="M250 1130 c0 -31 35 -120 47 -120 7 0 18 12 24 28 5 15 12 34 15 42
4 10 11 0 21 -27 8 -24 21 -43 28 -43 15 0 58 117 45 125 -10 6 -14 1 -30 -50
-14 -43 -14 -43 -40 29 -8 23 -13 26 -25 16 -7 -6 -17 -25 -20 -41 -4 -16 -10
-29 -15 -29 -5 0 -11 13 -15 29 -7 32 -35 64 -35 41z"/>
<path d="M570 1076 c0 -37 4 -66 10 -66 6 0 10 26 10 59 0 33 -4 63 -10 66 -6
4 -10 -18 -10 -59z"/>
<path d="M737 1134 c-4 -4 -7 -34 -7 -66 0 -45 3 -58 15 -58 11 0 15 11 15 38
l1 37 30 -37 c17 -21 35 -38 40 -38 5 0 9 29 9 65 0 37 -4 65 -10 65 -5 0 -10
-19 -10 -42 l-1 -43 -37 43 c-20 24 -41 40 -45 36z"/>
<path d="M990 1122 c-27 -22 -18 -47 21 -58 38 -11 34 -29 -6 -30 -42 0 -37
-18 6 -22 65 -5 80 48 19 70 -37 12 -34 34 4 31 29 -2 35 11 10 21 -23 9 -30
8 -54 -12z"/>
<path d="M1200 1075 l0 -65 45 0 c25 0 45 5 45 10 0 6 -16 10 -35 10 -24 0
-35 5 -35 15 0 10 10 15 30 15 37 0 40 18 3 22 -42 5 -41 28 1 28 25 0 36 4
36 15 0 11 -12 15 -45 15 l-45 0 0 -65z"/>
<path d="M1430 1075 c0 -37 4 -65 10 -65 6 0 10 9 10 20 0 11 7 20 15 20 8 0
20 -9 27 -20 17 -27 43 -28 28 0 -7 14 -7 25 1 38 16 26 5 50 -26 62 -58 22
-65 16 -65 -55z m75 15 c0 -9 -11 -16 -27 -18 -23 -3 -28 1 -28 18 0 17 5 21
28 18 16 -2 27 -9 27 -18z"/>
<path d="M1825 1124 c-24 -24 -14 -48 23 -59 46 -13 43 -39 -4 -32 -25 4 -34
2 -31 -6 2 -7 19 -13 39 -15 63 -5 79 54 17 68 -34 8 -32 36 4 32 29 -3 37 12
11 22 -25 10 -42 7 -59 -10z"/>
<path d="M2051 1078 c-16 -35 -24 -65 -18 -67 5 -2 14 4 19 13 12 22 64 21 77
-1 5 -10 13 -15 17 -11 9 9 -41 121 -56 126 -5 2 -23 -25 -39 -60z m52 2 c4
-15 0 -20 -14 -20 -21 0 -22 1 -13 24 8 22 21 20 27 -4z"/>
<path d="M2280 1075 c0 -37 4 -65 10 -65 6 0 10 19 10 43 l0 42 36 -42 c20
-24 40 -43 45 -43 5 0 9 29 9 65 0 37 -4 65 -10 65 -5 0 -10 -19 -10 -42 l0
-43 -41 43 c-22 23 -42 42 -45 42 -2 0 -4 -29 -4 -65z"/>
<path d="M2546 1119 c-32 -25 -34 -61 -5 -90 22 -22 79 -24 87 -2 2 9 -5 11
-26 7 -20 -4 -34 -1 -45 11 -22 21 -21 31 3 55 16 16 25 18 45 10 19 -7 25 -6
25 4 0 8 -10 16 -22 20 -32 8 -32 8 -62 -15z"/>
<path d="M2766 1133 c-3 -3 -6 -33 -6 -65 0 -45 3 -58 15 -58 9 0 15 9 15 25
0 21 5 25 30 25 25 0 30 -4 30 -25 0 -16 6 -25 15 -25 13 0 15 11 13 63 -3 61
-20 82 -26 32 -3 -20 -9 -25 -33 -25 -24 0 -29 4 -29 24 0 26 -12 40 -24 29z"/>
<path d="M3020 1076 l0 -66 45 0 c25 0 45 5 45 10 0 6 -16 10 -35 10 -24 0
-35 5 -35 15 0 10 10 15 30 15 17 0 30 5 30 10 0 6 -13 10 -30 10 -42 0 -40
28 3 32 46 4 39 22 -10 26 l-43 3 0 -65z"/>
<path d="M3237 1134 c-12 -13 4 -24 34 -24 l30 0 -35 -44 c-20 -23 -36 -46
-36 -50 0 -3 25 -6 55 -6 61 0 76 17 19 22 l-37 3 37 43 c20 24 33 48 30 53
-6 10 -87 12 -97 3z"/>
<path d="M1168 803 l-3 -128 -37 -3 c-33 -3 -38 -7 -38 -28 l0 -24 200 0 200
0 0 25 c0 22 -4 25 -35 25 l-35 0 0 130 0 130 -125 0 -124 0 -3 -127z"/>
<path d="M1648 868 l-78 -60 18 -30 c29 -51 119 -125 180 -150 49 -19 75 -23
182 -23 107 0 133 4 182 23 113 45 193 147 200 253 l3 44 -158 3 -158 3 22
-30 c12 -16 24 -49 26 -74 7 -63 -30 -127 -90 -156 -24 -12 -50 -21 -58 -21
-14 0 -90 120 -143 228 -15 28 -32 52 -39 52 -6 -1 -47 -28 -89 -62z"/>
<path d="M1097 503 c-4 -3 -7 -21 -7 -40 0 -28 4 -33 23 -33 45 0 65 50 28 70
-23 12 -35 13 -44 3z m46 -27 c5 -14 -10 -36 -25 -36 -4 0 -8 11 -8 25 0 27
24 35 33 11z"/>
<path d="M1257 503 c-4 -3 -7 -21 -7 -40 0 -30 3 -33 28 -32 16 1 20 3 10 6
-10 2 -18 8 -18 13 0 5 8 11 18 13 16 4 16 5 0 6 -22 1 -24 21 -3 21 8 0 15 5
15 10 0 11 -33 14 -43 3z"/>
<path d="M1390 502 c0 -20 23 -72 31 -72 11 0 29 44 28 68 0 10 -5 6 -11 -10
-11 -32 -28 -37 -28 -9 0 11 -4 23 -10 26 -5 3 -10 2 -10 -3z"/>
<path d="M1547 503 c-4 -3 -7 -21 -7 -40 0 -30 3 -33 28 -32 16 1 20 3 10 6
-10 2 -18 8 -18 13 0 5 8 11 18 13 16 4 16 5 0 6 -22 1 -24 21 -3 21 8 0 15 5
15 10 0 11 -33 14 -43 3z"/>
<path d="M1688 504 c-5 -4 -8 -22 -8 -41 0 -30 3 -33 28 -32 15 1 20 3 10 6
-11 3 -18 17 -20 40 -2 19 -6 31 -10 27z"/>
<path d="M1830 496 c-6 -8 -10 -25 -8 -38 2 -18 9 -23 33 -23 24 0 31 5 33 23
6 42 -33 68 -58 38z m47 -22 c3 -8 1 -20 -5 -26 -15 -15 -43 8 -35 28 7 19 32
18 40 -2z"/>
<path d="M1987 503 c-11 -10 -8 -73 3 -73 6 0 10 7 10 15 0 8 7 15 15 15 9 0
18 7 22 16 9 23 -32 45 -50 27z m38 -23 c-3 -5 -10 -10 -16 -10 -5 0 -9 5 -9
10 0 6 7 10 16 10 8 0 12 -4 9 -10z"/>
<path d="M2137 503 c-4 -3 -7 -21 -7 -40 0 -31 2 -33 33 -32 23 1 26 3 10 6
-27 5 -30 20 -5 26 16 4 16 5 0 6 -22 1 -24 21 -3 21 8 0 15 5 15 10 0 11 -33
14 -43 3z"/>
<path d="M2277 503 c-11 -10 -8 -73 3 -73 6 0 10 8 10 18 1 16 1 16 11 0 5
-10 18 -18 27 -18 15 1 15 2 -1 11 -14 8 -16 14 -6 25 19 24 -22 59 -44 37z
m33 -23 c0 -5 -4 -10 -10 -10 -5 0 -10 5 -10 10 0 6 5 10 10 10 6 0 10 -4 10
-10z"/>
</g>
</svg>
