<?xml version="1.0"?>
<svg width="170" height="97" xmlns="http://www.w3.org/2000/svg" xmlns:svg="http://www.w3.org/2000/svg" version="1.1">
 <g class="layer">
  <title>Layer 1</title>
  <g id="surface1">
   <path d="m91.75,15.85c-3.67,1.19 -5.96,2.63 -8.04,5.12c-3.28,3.78 -4.12,9.34 -2.14,13.91l0.8,1.89l22.54,0l-4.17,-2.88c-5.11,-3.53 -7.4,-6.56 -7.4,-9.89c0,-2.88 1.04,-4.77 3.18,-5.81c3.08,-1.44 3.43,-1.24 7.1,4.47c1.84,2.88 3.62,5.61 3.97,6.06c0.55,0.75 0.99,0.45 4.32,-2.88c2.09,-2.04 3.77,-3.93 3.77,-4.27c0,-0.75 -3.52,-3.48 -6.55,-5.07c-2.33,-1.2 -3.18,-1.34 -8.59,-1.44c-4.72,-0.1 -6.55,0.05 -8.79,0.79zm0,0" fill="#ffffff" fill-rule="nonzero" id="svg_1" stroke="#ffffff"/>
   <path d="m54.12,17.14c0,1.1 0.2,1.25 1.99,1.25l1.98,0l0,18.38l12.41,0l0,-18.38l1.74,0c1.54,0 1.74,-0.15 1.74,-1.25l0,-1.24l-19.86,0l0,1.24zm0,0" fill="#ffffff" fill-rule="nonzero" id="svg_2" stroke="#ffffff"/>
   <path d="m4.77,40.6c-0.15,0.15 -0.3,1.64 -0.3,3.23c0,2.24 0.15,2.88 0.74,2.88c0.6,0 0.75,-0.64 0.75,-2.93c0,-2.78 -0.45,-3.93 -1.19,-3.18zm0,0" fill="#ffffff" fill-rule="nonzero" id="svg_3" stroke="#ffffff"/>
   <path d="m12.41,40.75c0,1.54 1.74,5.96 2.34,5.96c0.34,0 0.89,-0.6 1.19,-1.39c0.25,-0.75 0.6,-1.69 0.74,-2.09c0.2,-0.5 0.55,0 1.05,1.34c0.39,1.2 1.04,2.14 1.38,2.14c0.75,0 2.89,-5.81 2.24,-6.21c-0.5,-0.3 -0.7,-0.05 -1.49,2.48c-0.7,2.14 -0.7,2.14 -1.98,-1.44c-0.4,-1.14 -0.65,-1.29 -1.25,-0.79c-0.34,0.3 -0.84,1.24 -0.99,2.04c-0.2,0.79 -0.5,1.44 -0.75,1.44c-0.24,0 -0.54,-0.65 -0.74,-1.44c-0.35,-1.59 -1.74,-3.18 -1.74,-2.04zm0,0" fill="#ffffff" fill-rule="nonzero" id="svg_4" stroke="#ffffff"/>
   <path d="m28.3,43.43c0,1.84 0.2,3.28 0.5,3.28c0.29,0 0.49,-1.29 0.49,-2.93c0,-1.64 -0.2,-3.13 -0.49,-3.28c-0.3,-0.2 -0.5,0.89 -0.5,2.93zm0,0" fill="#ffffff" fill-rule="nonzero" id="svg_5" stroke="#ffffff"/>
   <path d="m36.59,40.55c-0.2,0.2 -0.34,1.69 -0.34,3.28c0,2.24 0.14,2.88 0.74,2.88c0.55,0 0.74,-0.55 0.74,-1.89l0.06,-1.84l1.48,1.84c0.85,1.05 1.74,1.89 1.99,1.89c0.25,0 0.45,-1.44 0.45,-3.23c0,-1.84 -0.2,-3.23 -0.5,-3.23c-0.25,0 -0.5,0.95 -0.5,2.09l-0.05,2.14l-1.84,-2.14c-0.99,-1.2 -2.03,-1.99 -2.23,-1.79zm0,0" fill="#ffffff" fill-rule="nonzero" id="svg_6" stroke="#ffffff"/>
   <path d="m49.15,41.14c-1.34,1.1 -0.89,2.34 1.05,2.89c1.88,0.54 1.68,1.44 -0.3,1.49c-2.09,0 -1.84,0.89 0.3,1.09c3.22,0.25 3.97,-2.38 0.94,-3.48c-1.84,-0.59 -1.69,-1.68 0.2,-1.54c1.44,0.1 1.73,-0.54 0.5,-1.04c-1.15,-0.45 -1.5,-0.4 -2.69,0.59zm0,0" fill="#ffffff" fill-rule="nonzero" id="svg_7" stroke="#ffffff"/>
   <path d="m59.58,43.48l0,3.23l2.23,0c1.24,0 2.24,-0.25 2.24,-0.5c0,-0.3 -0.8,-0.49 -1.74,-0.49c-1.19,0 -1.74,-0.25 -1.74,-0.75c0,-0.49 0.5,-0.74 1.49,-0.74c1.84,0 1.99,-0.9 0.15,-1.1c-2.08,-0.25 -2.03,-1.39 0.05,-1.39c1.24,0 1.79,-0.2 1.79,-0.74c0,-0.55 -0.6,-0.75 -2.24,-0.75l-2.23,0l0,3.23zm0,0" fill="#ffffff" fill-rule="nonzero" id="svg_8" stroke="#ffffff"/>
   <path d="m71,43.48c0,1.84 0.2,3.23 0.5,3.23c0.29,0 0.49,-0.44 0.49,-0.99c0,-0.55 0.35,-1 0.75,-1c0.39,0 0.99,0.45 1.34,1c0.84,1.34 2.13,1.39 1.39,0c-0.35,-0.7 -0.35,-1.24 0.05,-1.89c0.79,-1.29 0.25,-2.49 -1.29,-3.08c-2.88,-1.09 -3.23,-0.8 -3.23,2.73zm3.72,-0.75c0,0.45 -0.54,0.8 -1.34,0.9c-1.14,0.15 -1.39,-0.05 -1.39,-0.9c0,-0.84 0.25,-1.04 1.39,-0.89c0.8,0.1 1.34,0.45 1.34,0.89zm0,0" fill="#ffffff" fill-rule="nonzero" id="svg_9" stroke="#ffffff"/>
   <path d="m90.61,41.05c-1.19,1.19 -0.7,2.38 1.14,2.93c2.29,0.65 2.14,1.93 -0.2,1.59c-1.24,-0.2 -1.68,-0.1 -1.53,0.3c0.09,0.34 0.94,0.64 1.93,0.74c3.13,0.25 3.93,-2.68 0.85,-3.38c-1.69,-0.39 -1.59,-1.78 0.19,-1.59c1.44,0.15 1.84,-0.59 0.55,-1.09c-1.24,-0.5 -2.09,-0.35 -2.93,0.5zm0,0" fill="#ffffff" fill-rule="nonzero" id="svg_10" stroke="#ffffff"/>
   <path d="m101.83,43.33c-0.79,1.74 -1.19,3.23 -0.89,3.33c0.25,0.1 0.69,-0.2 0.94,-0.64c0.6,-1.1 3.18,-1.05 3.82,0.05c0.25,0.49 0.65,0.74 0.85,0.54c0.45,-0.45 -2.04,-6.01 -2.78,-6.26c-0.25,-0.1 -1.14,1.24 -1.94,2.98zm2.58,-0.1c0.2,0.75 0,1 -0.69,1c-1.04,0 -1.09,-0.05 -0.65,-1.19c0.4,-1.1 1.04,-1 1.34,0.19zm0,0" fill="#ffffff" fill-rule="nonzero" id="svg_11" stroke="#ffffff"/>
   <path d="m113.2,43.48c0,1.84 0.2,3.23 0.5,3.23c0.3,0 0.5,-0.94 0.5,-2.14l0,-2.08l1.78,2.08c0.99,1.2 1.99,2.14 2.23,2.14c0.25,0 0.45,-1.44 0.45,-3.23c0,-1.84 -0.2,-3.23 -0.5,-3.23c-0.24,0 -0.49,0.95 -0.49,2.09l0,2.14l-2.04,-2.14c-1.09,-1.14 -2.08,-2.09 -2.23,-2.09c-0.1,0 -0.2,1.44 -0.2,3.23zm0,0" fill="#ffffff" fill-rule="nonzero" id="svg_12" stroke="#ffffff"/>
   <path d="m126.41,41.29c-1.59,1.25 -1.69,3.03 -0.25,4.48c1.09,1.09 3.92,1.19 4.32,0.1c0.1,-0.45 -0.25,-0.55 -1.29,-0.35c-0.99,0.2 -1.69,0.05 -2.24,-0.55c-1.09,-1.04 -1.04,-1.54 0.15,-2.73c0.8,-0.79 1.24,-0.9 2.24,-0.5c0.94,0.35 1.24,0.3 1.24,-0.2c0,-0.4 -0.5,-0.79 -1.1,-0.99c-1.58,-0.4 -1.58,-0.4 -3.07,0.74zm0,0" fill="#ffffff" fill-rule="nonzero" id="svg_13" stroke="#ffffff"/>
   <path d="m137.33,40.6c-0.15,0.15 -0.3,1.64 -0.3,3.23c0,2.24 0.15,2.88 0.75,2.88c0.44,0 0.74,-0.44 0.74,-1.24c0,-1.04 0.25,-1.24 1.49,-1.24c1.24,0 1.49,0.2 1.49,1.24c0,0.8 0.3,1.24 0.75,1.24c0.64,0 0.74,-0.55 0.64,-3.13c-0.15,-3.03 -0.99,-4.08 -1.29,-1.59c-0.15,0.99 -0.45,1.24 -1.64,1.24c-1.19,0 -1.44,-0.19 -1.44,-1.19c0,-1.29 -0.59,-1.99 -1.19,-1.44zm0,0" fill="#ffffff" fill-rule="nonzero" id="svg_14" stroke="#ffffff"/>
   <path d="m149.94,43.43l0,3.28l2.24,0c1.24,0 2.23,-0.25 2.23,-0.5c0,-0.3 -0.79,-0.49 -1.74,-0.49c-1.19,0 -1.74,-0.25 -1.74,-0.75c0,-0.49 0.5,-0.74 1.5,-0.74c0.84,0 1.48,-0.25 1.48,-0.5c0,-0.3 -0.64,-0.5 -1.48,-0.5c-2.09,0 -1.99,-1.39 0.14,-1.59c2.29,-0.19 1.94,-1.09 -0.49,-1.29l-2.14,-0.15l0,3.23zm0,0" fill="#ffffff" fill-rule="nonzero" id="svg_15" stroke="#ffffff"/>
   <path d="m160.71,40.55c-0.59,0.65 0.2,1.19 1.69,1.19l1.49,0l-1.73,2.19c-1,1.14 -1.79,2.28 -1.79,2.48c0,0.15 1.24,0.3 2.73,0.3c3.03,0 3.77,-0.84 0.94,-1.09l-1.84,-0.15l1.84,-2.14c1,-1.19 1.64,-2.38 1.49,-2.63c-0.3,-0.5 -4.32,-0.6 -4.82,-0.15zm0,0" fill="#ffffff" fill-rule="nonzero" id="svg_16" stroke="#ffffff"/>
   <path d="m57.99,57l-0.15,6.36l-1.84,0.15c-1.63,0.15 -1.88,0.35 -1.88,1.39l0,1.19l19.86,0l0,-1.24c0,-1.1 -0.2,-1.24 -1.74,-1.24l-1.74,0l0,-12.92l-12.36,0l-0.15,6.31zm0,0" fill="#ffffff" fill-rule="nonzero" id="svg_17" stroke="#ffffff"/>
   <path d="m81.82,53.77l-3.87,2.98l0.89,1.49c1.45,2.53 5.91,6.21 8.94,7.46c2.43,0.94 3.72,1.14 9.04,1.14c5.31,0 6.6,-0.2 9.03,-1.14c5.61,-2.24 9.58,-7.31 9.93,-12.58l0.15,-2.19l-7.84,-0.14l-7.85,-0.15l1.1,1.49c0.59,0.79 1.19,2.43 1.29,3.67c0.34,3.13 -1.49,6.32 -4.47,7.76c-1.2,0.59 -2.48,1.04 -2.88,1.04c-0.7,0 -4.47,-5.96 -7.1,-11.33c-0.75,-1.39 -1.59,-2.58 -1.94,-2.58c-0.3,0.04 -2.33,1.39 -4.42,3.08zm0,0" fill="#ffffff" fill-rule="nonzero" id="svg_18" stroke="#ffffff"/>
   <path d="m54.46,71.91c-0.19,0.14 -0.34,1.04 -0.34,1.98c0,1.4 0.2,1.64 1.14,1.64c2.24,0 3.23,-2.48 1.39,-3.48c-1.14,-0.59 -1.74,-0.64 -2.19,-0.14zm2.29,1.34c0.25,0.69 -0.5,1.79 -1.24,1.79c-0.2,0 -0.4,-0.55 -0.4,-1.25c0,-1.34 1.19,-1.74 1.64,-0.54zm0,0" fill="#ffffff" fill-rule="nonzero" id="svg_19" stroke="#ffffff"/>
   <path d="m62.41,71.91c-0.2,0.14 -0.35,1.04 -0.35,1.98c0,1.49 0.15,1.64 1.39,1.59c0.8,-0.05 1,-0.14 0.5,-0.3c-0.5,-0.09 -0.9,-0.39 -0.9,-0.64c0,-0.25 0.4,-0.55 0.9,-0.65c0.79,-0.19 0.79,-0.25 0,-0.3c-1.09,-0.04 -1.19,-1.04 -0.15,-1.04c0.4,0 0.74,-0.25 0.74,-0.5c0,-0.54 -1.63,-0.69 -2.13,-0.14zm0,0" fill="#ffffff" fill-rule="nonzero" id="svg_20" stroke="#ffffff"/>
   <path d="m69.01,71.95c0,1 1.15,3.58 1.54,3.58c0.55,0 1.44,-2.18 1.39,-3.38c0,-0.49 -0.24,-0.29 -0.55,0.5c-0.54,1.59 -1.39,1.84 -1.39,0.45c0,-0.55 -0.19,-1.15 -0.49,-1.3c-0.25,-0.14 -0.5,-0.09 -0.5,0.15zm0,0" fill="#ffffff" fill-rule="nonzero" id="svg_21" stroke="#ffffff"/>
   <path d="m76.81,71.91c-0.2,0.14 -0.35,1.04 -0.35,1.98c0,1.49 0.15,1.64 1.39,1.59c0.79,-0.05 0.99,-0.14 0.5,-0.3c-0.5,-0.09 -0.9,-0.39 -0.9,-0.64c0,-0.25 0.4,-0.55 0.9,-0.65c0.79,-0.19 0.79,-0.25 0,-0.3c-1.1,-0.04 -1.19,-1.04 -0.15,-1.04c0.39,0 0.74,-0.25 0.74,-0.5c0,-0.54 -1.64,-0.69 -2.13,-0.14zm0,0" fill="#ffffff" fill-rule="nonzero" id="svg_22" stroke="#ffffff"/>
   <path d="m83.81,71.86c-0.25,0.19 -0.4,1.09 -0.4,2.03c0,1.49 0.15,1.64 1.39,1.59c0.75,-0.05 0.99,-0.14 0.5,-0.3c-0.55,-0.14 -0.9,-0.84 -1,-1.98c-0.09,-0.95 -0.29,-1.54 -0.49,-1.34zm0,0" fill="#ffffff" fill-rule="nonzero" id="svg_23" stroke="#ffffff"/>
   <path d="m90.86,72.25c-0.3,0.4 -0.5,1.25 -0.4,1.89c0.1,0.9 0.45,1.15 1.64,1.15c1.19,0 1.54,-0.25 1.64,-1.15c0.3,-2.09 -1.64,-3.38 -2.88,-1.89zm2.33,1.1c0.15,0.39 0.05,0.99 -0.24,1.29c-0.75,0.74 -2.14,-0.4 -1.74,-1.39c0.34,-0.95 1.59,-0.9 1.98,0.1zm0,0" fill="#ffffff" fill-rule="nonzero" id="svg_24" stroke="#ffffff"/>
   <path d="m98.65,71.91c-0.54,0.49 -0.39,3.62 0.15,3.62c0.3,0 0.5,-0.35 0.5,-0.74c0,-0.4 0.35,-0.75 0.74,-0.75c0.45,0 0.9,-0.34 1.1,-0.79c0.44,-1.14 -1.59,-2.24 -2.49,-1.34zm1.89,1.14c-0.15,0.25 -0.5,0.5 -0.79,0.5c-0.25,0 -0.45,-0.25 -0.45,-0.5c0,-0.3 0.35,-0.5 0.79,-0.5c0.4,0 0.6,0.2 0.45,0.5zm0,0" fill="#ffffff" fill-rule="nonzero" id="svg_25" stroke="#ffffff"/>
   <path d="m106.1,71.91c-0.2,0.14 -0.35,1.04 -0.35,1.98c0,1.54 0.1,1.64 1.64,1.59c1.15,-0.05 1.29,-0.14 0.5,-0.3c-1.34,-0.24 -1.49,-0.99 -0.25,-1.29c0.79,-0.19 0.79,-0.25 0,-0.3c-1.09,-0.04 -1.19,-1.04 -0.15,-1.04c0.4,0 0.74,-0.25 0.74,-0.5c0,-0.54 -1.63,-0.69 -2.13,-0.14zm0,0" fill="#ffffff" fill-rule="nonzero" id="svg_26" stroke="#ffffff"/>
   <path d="m113.05,71.91c-0.55,0.49 -0.39,3.62 0.15,3.62c0.3,0 0.5,-0.39 0.5,-0.89c0.05,-0.8 0.05,-0.8 0.54,0c0.25,0.5 0.9,0.89 1.35,0.89c0.74,-0.05 0.74,-0.1 -0.05,-0.55c-0.7,-0.39 -0.8,-0.69 -0.3,-1.24c0.94,-1.19 -1.1,-2.93 -2.19,-1.83zm1.64,1.14c0,0.25 -0.2,0.5 -0.49,0.5c-0.25,0 -0.5,-0.25 -0.5,-0.5c0,-0.3 0.25,-0.5 0.5,-0.5c0.29,0 0.49,0.2 0.49,0.5zm0,0" fill="#ffffff" fill-rule="nonzero" id="svg_27" stroke="#ffffff"/>
  </g>
 </g>
</svg>