<?xml version="1.0" encoding="UTF-8"?>
<svg xmlns="http://www.w3.org/2000/svg" xmlns:xlink="http://www.w3.org/1999/xlink" width="px" height="px" viewBox="0 0 1097 1250" version="1.1">
<g id="surface1">
<path style=" stroke:none;fill-rule:nonzero;fill:rgb(38.039216%,85.490196%,98.431373%);fill-opacity:1;" d="M 1097 625.113281 C 1097 552.441406 1005.992188 483.570312 866.464844 440.863281 C 898.664062 298.648438 884.351562 185.507812 821.296875 149.28125 C 806.761719 140.785156 789.769531 136.761719 771.210938 136.761719 L 771.210938 186.625 C 781.496094 186.625 789.769531 188.636719 796.699219 192.4375 C 827.109375 209.878906 840.304688 276.289062 830.015625 361.707031 C 827.558594 382.726562 823.53125 404.863281 818.613281 427.445312 C 774.785156 416.714844 726.9375 408.441406 676.625 403.074219 C 646.4375 361.707031 615.132812 324.140625 583.605469 291.269531 C 656.5 223.519531 724.921875 186.402344 771.433594 186.402344 L 771.433594 136.539062 C 709.941406 136.539062 629.445312 180.363281 548.054688 256.390625 C 466.660156 180.8125 386.164062 137.433594 324.671875 137.433594 L 324.671875 187.296875 C 370.957031 187.296875 439.605469 224.191406 512.5 291.496094 C 481.195312 324.363281 449.890625 361.707031 420.152344 403.074219 C 369.617188 408.441406 321.765625 416.714844 277.941406 427.667969 C 272.796875 405.308594 268.996094 383.621094 266.3125 362.824219 C 255.800781 277.40625 268.773438 210.996094 298.957031 193.332031 C 305.667969 189.308594 314.386719 187.519531 324.671875 187.519531 L 324.671875 137.65625 C 305.890625 137.65625 288.894531 141.679688 274.136719 150.175781 C 211.304688 186.402344 197.21875 299.320312 229.640625 441.085938 C 90.558594 484.019531 0 552.664062 0 625.113281 C 0 697.78125 91.007812 766.652344 230.535156 809.359375 C 198.335938 951.574219 212.648438 1064.714844 275.703125 1100.941406 C 290.238281 1109.4375 307.230469 1113.460938 326.015625 1113.460938 C 387.503906 1113.460938 468.003906 1069.636719 549.394531 993.609375 C 630.785156 1069.1875 711.285156 1112.566406 772.773438 1112.566406 C 791.558594 1112.566406 808.550781 1108.542969 823.308594 1100.046875 C 886.140625 1063.824219 900.230469 950.902344 867.804688 809.136719 C 1006.441406 766.429688 1097 697.558594 1097 625.113281 Z M 805.867188 475.96875 C 797.59375 504.8125 787.308594 534.550781 775.679688 564.292969 C 766.511719 546.402344 756.898438 528.515625 746.390625 510.625 C 736.105469 492.738281 725.148438 475.296875 714.191406 458.304688 C 745.941406 463 776.574219 468.8125 805.867188 475.96875 Z M 703.457031 714.105469 C 686.015625 744.292969 668.128906 772.914062 649.570312 799.523438 C 616.25 802.429688 582.488281 803.996094 548.5 803.996094 C 514.734375 803.996094 480.972656 802.429688 447.878906 799.746094 C 429.320312 773.136719 411.207031 744.738281 393.765625 714.777344 C 376.773438 685.484375 361.34375 655.746094 347.257812 625.78125 C 361.121094 595.820312 376.773438 565.855469 393.542969 536.566406 C 410.984375 506.378906 428.871094 477.757812 447.429688 451.148438 C 480.75 448.242188 514.511719 446.675781 548.5 446.675781 C 582.265625 446.675781 616.027344 448.242188 649.121094 450.925781 C 667.679688 477.535156 685.792969 505.929688 703.234375 535.894531 C 720.226562 565.1875 735.65625 594.925781 749.742188 624.886719 C 735.65625 654.851562 720.226562 684.8125 703.457031 714.105469 Z M 775.679688 685.039062 C 787.757812 715 798.042969 744.964844 806.539062 774.03125 C 777.246094 781.1875 746.390625 787.222656 714.414062 791.921875 C 725.371094 774.703125 736.328125 757.039062 746.613281 738.925781 C 756.898438 721.039062 766.511719 702.925781 775.679688 685.039062 Z M 548.945312 923.621094 C 528.152344 902.15625 507.355469 878.230469 486.785156 852.070312 C 506.910156 852.964844 527.480469 853.636719 548.277344 853.636719 C 569.296875 853.636719 590.089844 853.1875 610.4375 852.070312 C 590.3125 878.230469 569.519531 902.15625 548.945312 923.621094 Z M 382.585938 791.921875 C 350.835938 787.222656 320.199219 781.410156 290.910156 774.253906 C 299.183594 745.410156 309.46875 715.671875 321.09375 685.933594 C 330.261719 703.820312 339.878906 721.707031 350.386719 739.597656 C 360.894531 757.484375 371.628906 774.925781 382.585938 791.921875 Z M 547.828125 326.601562 C 568.625 348.066406 589.417969 371.992188 609.992188 398.152344 C 589.867188 397.257812 569.296875 396.589844 548.5 396.589844 C 527.480469 396.589844 506.6875 397.035156 486.339844 398.152344 C 506.460938 371.992188 527.257812 348.066406 547.828125 326.601562 Z M 382.363281 458.304688 C 371.40625 475.519531 360.449219 493.1875 350.164062 511.296875 C 339.878906 529.1875 330.261719 547.074219 321.09375 564.960938 C 309.019531 535 298.734375 505.035156 290.238281 475.96875 C 319.53125 469.035156 350.386719 463 382.363281 458.304688 Z M 180 738.253906 C 100.84375 704.492188 49.640625 660.21875 49.640625 625.113281 C 49.640625 590.007812 100.84375 545.507812 180 511.96875 C 199.230469 503.695312 220.25 496.316406 241.9375 489.382812 C 254.683594 533.210938 271.453125 578.824219 292.25 625.558594 C 271.679688 672.070312 255.132812 717.460938 242.609375 761.0625 C 220.472656 754.132812 199.453125 746.527344 180 738.253906 Z M 300.300781 1057.785156 C 269.890625 1040.34375 256.695312 973.933594 266.984375 888.515625 C 269.441406 867.5 273.46875 845.363281 278.386719 822.777344 C 322.214844 833.511719 370.0625 841.785156 420.375 847.148438 C 450.5625 888.515625 481.867188 926.082031 513.394531 958.953125 C 440.5 1026.703125 372.078125 1063.824219 325.566406 1063.824219 C 315.503906 1063.597656 307.007812 1061.585938 300.300781 1057.785156 Z M 830.6875 887.398438 C 841.199219 972.816406 828.226562 1039.226562 798.042969 1056.890625 C 791.332031 1060.914062 782.613281 1062.703125 772.328125 1062.703125 C 726.042969 1062.703125 657.394531 1025.808594 584.5 958.503906 C 615.804688 925.636719 647.109375 888.292969 676.847656 846.925781 C 727.382812 841.558594 775.234375 833.285156 819.058594 822.332031 C 824.203125 844.914062 828.226562 866.605469 830.6875 887.398438 Z M 916.773438 738.253906 C 897.546875 746.527344 876.527344 753.90625 854.835938 760.839844 C 842.089844 717.011719 825.320312 671.398438 804.527344 624.664062 C 825.097656 578.15625 841.644531 532.761719 854.167969 489.160156 C 876.304688 496.09375 897.320312 503.695312 917 511.96875 C 996.15625 545.734375 1047.359375 590.007812 1047.359375 625.113281 C 1047.136719 660.21875 995.929688 704.714844 916.773438 738.253906 Z M 916.773438 738.253906 "/>
<path style=" stroke:none;fill-rule:nonzero;fill:rgb(38.039216%,85.490196%,98.431373%);fill-opacity:1;" d="M 650.464844 625.113281 C 650.464844 681.546875 604.710938 727.296875 548.277344 727.296875 C 491.839844 727.296875 446.089844 681.546875 446.089844 625.113281 C 446.089844 568.675781 491.839844 522.925781 548.277344 522.925781 C 604.710938 522.925781 650.464844 568.675781 650.464844 625.113281 Z M 650.464844 625.113281 "/>
</g>
</svg>
