<?xml version="1.0" encoding="UTF-8"?>
<svg xmlns="http://www.w3.org/2000/svg" xmlns:xlink="http://www.w3.org/1999/xlink" width="px" height="px" viewBox="0 0 344 125" version="1.1">
<defs>
<clipPath id="clip1">
  <path d="M 15 14 L 106 14 L 106 111 L 15 111 Z M 15 14 "/>
</clipPath>
<clipPath id="clip2">
  <path d="M 59.347656 14.71875 C 59.347656 14.71875 59.347656 18.71875 69.734375 25.023438 C 89.914062 37.300781 89.871094 48.558594 89.871094 50.921875 C 89.871094 60.953125 79.441406 67.421875 74.601562 62.191406 C 74.601562 62.191406 79.351562 58.691406 79.351562 53.234375 C 79.351562 53.234375 75.855469 55.535156 74.046875 55.929688 C 74.046875 55.929688 76.417969 51.730469 75.308594 44.359375 C 75.308594 44.359375 73.414062 48.085938 67.320312 51.09375 C 67.320312 51.09375 69.695312 45.785156 67.476562 40.714844 C 67.476562 40.714844 67.953125 47.054688 53.550781 53.789062 C 39.152344 60.523438 43.566406 67.289062 43.566406 67.289062 C 43.566406 67.289062 46.4375 64.234375 51.308594 66.378906 C 57.90625 69.28125 55.238281 80.921875 44.636719 80.921875 C 34.308594 80.921875 27.535156 69.679688 27.535156 60.921875 C 27.535156 57.289062 27.929688 50.609375 34.480469 43.265625 C 39.683594 37.375 46.101562 34.296875 47.480469 27.835938 C 40.347656 34.460938 27.460938 38.78125 19.820312 50.113281 C 12.945312 60.300781 15.179688 73.765625 16.417969 77.910156 C 22.183594 97.195312 39.902344 110.40625 60.007812 110.410156 C 85.136719 110.410156 105.765625 90.273438 105.765625 65.113281 C 105.765625 27 69.605469 22.953125 59.347656 14.71875 Z M 53.261719 61.351562 C 52.5 61.53125 51.765625 61.210938 50.542969 60.851562 C 50.046875 60.660156 49.523438 60.5625 48.992188 60.570312 C 49.765625 60.046875 50.574219 59.582031 51.414062 59.179688 C 52.628906 58.621094 53.667969 58.589844 54.152344 59.679688 C 54.273438 60.019531 54.246094 60.394531 54.078125 60.710938 C 53.90625 61.03125 53.613281 61.261719 53.261719 61.351562 Z M 53.261719 61.351562 "/>
</clipPath>
<linearGradient id="linear0" gradientUnits="userSpaceOnUse" x1="166.15" y1="208.58" x2="76.76" y2="53.75" gradientTransform="matrix(0.499274,0,0,0.5,0,0)">
<stop offset="0" style="stop-color:rgb(7.843137%,42.352941%,81.568627%);stop-opacity:1;"/>
<stop offset="1" style="stop-color:rgb(5.882353%,63.137255%,91.764706%);stop-opacity:1;"/>
</linearGradient>
<filter id="alpha" filterUnits="objectBoundingBox" x="0%" y="0%" width="100%" height="100%">
  <feColorMatrix type="matrix" in="SourceGraphic" values="0 0 0 0 1 0 0 0 0 1 0 0 0 0 1 0 0 0 1 0"/>
</filter>
<mask id="mask0">
  <g filter="url(#alpha)">
<rect x="0" y="0" width="344" height="125" style="fill:rgb(0%,0%,0%);fill-opacity:0.6;stroke:none;"/>
  </g>
</mask>
<clipPath id="clip3">
  <rect x="0" y="0" width="344" height="125"/>
</clipPath>
<g id="surface5" clip-path="url(#clip3)">
<path style=" stroke:none;fill-rule:nonzero;fill:rgb(2.745098%,75.686275%,94.901961%);fill-opacity:1;" d="M 56.738281 62.304688 C 61.460938 59.914062 65.203125 55.945312 67.316406 51.085938 C 67.316406 51.085938 69.695312 45.769531 67.476562 40.695312 C 67.476562 40.695312 67.953125 47.039062 53.539062 53.78125 C 39.125 60.519531 43.550781 67.28125 43.550781 67.28125 C 44.371094 66.535156 45.367188 66.019531 46.449219 65.78125 C 48.828125 65.113281 52.558594 64.464844 56.738281 62.304688 Z M 56.738281 62.304688 "/>
</g>
<mask id="mask1">
  <g filter="url(#alpha)">
<rect x="0" y="0" width="344" height="125" style="fill:rgb(0%,0%,0%);fill-opacity:0.4;stroke:none;"/>
  </g>
</mask>
<clipPath id="clip4">
  <rect x="0" y="0" width="344" height="125"/>
</clipPath>
<g id="surface8" clip-path="url(#clip4)">
<path style=" stroke:none;fill-rule:nonzero;fill:rgb(2.745098%,75.686275%,94.901961%);fill-opacity:1;" d="M 57.152344 65.238281 C 63.34375 65.238281 70.507812 62.359375 74.050781 55.925781 C 74.699219 54.609375 75.132812 53.199219 75.34375 51.75 C 75.765625 49.242188 75.765625 46.679688 75.34375 44.171875 C 75.34375 44.171875 74.167969 47.464844 67.355469 51.085938 C 64.191406 52.707031 60.875 54.019531 57.457031 55 C 41.171875 59.949219 43.5625 67.273438 43.5625 67.273438 C 46.128906 65.558594 46.144531 65.238281 57.152344 65.238281 Z M 57.152344 65.238281 "/>
</g>
<mask id="mask2">
  <g filter="url(#alpha)">
<rect x="0" y="0" width="344" height="125" style="fill:rgb(0%,0%,0%);fill-opacity:0.2;stroke:none;"/>
  </g>
</mask>
<clipPath id="clip5">
  <rect x="0" y="0" width="344" height="125"/>
</clipPath>
<g id="surface11" clip-path="url(#clip5)">
<path style=" stroke:none;fill-rule:nonzero;fill:rgb(2.745098%,75.686275%,94.901961%);fill-opacity:1;" d="M 57.152344 65.238281 C 62.84375 65.238281 70.582031 65.558594 74.601562 62.191406 C 77.066406 60.121094 79.320312 57.386719 79.359375 53.214844 C 79.359375 53.214844 75.988281 55.445312 74.050781 55.925781 C 71.371094 56.589844 66.5625 57.605469 62.128906 57.355469 C 47.152344 56.5 43.5625 67.265625 43.5625 67.265625 C 45.625 65.351562 48.140625 65.238281 57.152344 65.238281 Z M 57.152344 65.238281 "/>
</g>
<mask id="mask3">
  <g filter="url(#alpha)">
<rect x="0" y="0" width="344" height="125" style="fill:rgb(0%,0%,0%);fill-opacity:0.4;stroke:none;"/>
  </g>
</mask>
<clipPath id="clip6">
  <rect x="0" y="0" width="344" height="125"/>
</clipPath>
<g id="surface14" clip-path="url(#clip6)">
<path style=" stroke:none;fill-rule:nonzero;fill:rgb(2.745098%,75.686275%,94.901961%);fill-opacity:1;" d="M 56.738281 62.304688 C 61.460938 59.914062 65.203125 55.945312 67.316406 51.085938 C 64.164062 52.703125 60.863281 54.015625 57.457031 55 C 41.171875 59.949219 43.5625 67.273438 43.5625 67.273438 C 44.378906 66.53125 45.378906 66.011719 46.457031 65.773438 C 48.828125 65.113281 52.558594 64.464844 56.738281 62.304688 Z M 56.738281 62.304688 "/>
</g>
<clipPath id="clip7">
  <path d="M 43 57 L 64 57 L 64 68 L 43 68 Z M 43 57 "/>
</clipPath>
<clipPath id="clip8">
  <path d="M 59.347656 14.71875 C 59.347656 14.71875 59.347656 18.71875 69.734375 25.023438 C 89.914062 37.300781 89.871094 48.558594 89.871094 50.921875 C 89.871094 60.953125 79.441406 67.421875 74.601562 62.191406 C 74.601562 62.191406 79.351562 58.691406 79.351562 53.234375 C 79.351562 53.234375 75.855469 55.535156 74.046875 55.929688 C 74.046875 55.929688 76.417969 51.730469 75.308594 44.359375 C 75.308594 44.359375 73.414062 48.085938 67.320312 51.09375 C 67.320312 51.09375 69.695312 45.785156 67.476562 40.714844 C 67.476562 40.714844 67.953125 47.054688 53.550781 53.789062 C 39.152344 60.523438 43.566406 67.289062 43.566406 67.289062 C 43.566406 67.289062 46.4375 64.234375 51.308594 66.378906 C 57.90625 69.28125 55.238281 80.921875 44.636719 80.921875 C 34.308594 80.921875 27.535156 69.679688 27.535156 60.921875 C 27.535156 57.289062 27.929688 50.609375 34.480469 43.265625 C 39.683594 37.375 46.101562 34.296875 47.480469 27.835938 C 40.347656 34.460938 27.460938 38.78125 19.820312 50.113281 C 12.945312 60.300781 15.179688 73.765625 16.417969 77.910156 C 22.183594 97.195312 39.902344 110.40625 60.007812 110.410156 C 85.136719 110.410156 105.765625 90.273438 105.765625 65.113281 C 105.765625 27 69.605469 22.953125 59.347656 14.71875 Z M 53.261719 61.351562 C 52.5 61.53125 51.765625 61.210938 50.542969 60.851562 C 50.046875 60.660156 49.523438 60.5625 48.992188 60.570312 C 49.765625 60.046875 50.574219 59.582031 51.414062 59.179688 C 52.628906 58.621094 53.667969 58.589844 54.152344 59.679688 C 54.273438 60.019531 54.246094 60.394531 54.078125 60.710938 C 53.90625 61.03125 53.613281 61.261719 53.261719 61.351562 Z M 53.261719 61.351562 "/>
</clipPath>
<clipPath id="clip9">
  <path d="M 15 14 L 106 14 L 106 111 L 15 111 Z M 15 14 "/>
</clipPath>
<clipPath id="clip10">
  <path d="M 59.347656 14.71875 C 59.347656 14.71875 59.347656 18.71875 69.734375 25.023438 C 89.914062 37.300781 89.871094 48.558594 89.871094 50.921875 C 89.871094 60.953125 79.441406 67.421875 74.601562 62.191406 C 74.601562 62.191406 79.351562 58.691406 79.351562 53.234375 C 79.351562 53.234375 75.855469 55.535156 74.046875 55.929688 C 74.046875 55.929688 76.417969 51.730469 75.308594 44.359375 C 75.308594 44.359375 73.414062 48.085938 67.320312 51.09375 C 67.320312 51.09375 69.695312 45.785156 67.476562 40.714844 C 67.476562 40.714844 67.953125 47.054688 53.550781 53.789062 C 39.152344 60.523438 43.566406 67.289062 43.566406 67.289062 C 43.566406 67.289062 46.4375 64.234375 51.308594 66.378906 C 57.90625 69.28125 55.238281 80.921875 44.636719 80.921875 C 34.308594 80.921875 27.535156 69.679688 27.535156 60.921875 C 27.535156 57.289062 27.929688 50.609375 34.480469 43.265625 C 39.683594 37.375 46.101562 34.296875 47.480469 27.835938 C 40.347656 34.460938 27.460938 38.78125 19.820312 50.113281 C 12.945312 60.300781 15.179688 73.765625 16.417969 77.910156 C 22.183594 97.195312 39.902344 110.40625 60.007812 110.410156 C 85.136719 110.410156 105.765625 90.273438 105.765625 65.113281 C 105.765625 27 69.605469 22.953125 59.347656 14.71875 Z M 53.261719 61.351562 C 52.5 61.53125 51.765625 61.210938 50.542969 60.851562 C 50.046875 60.660156 49.523438 60.5625 48.992188 60.570312 C 49.765625 60.046875 50.574219 59.582031 51.414062 59.179688 C 52.628906 58.621094 53.667969 58.589844 54.152344 59.679688 C 54.273438 60.019531 54.246094 60.394531 54.078125 60.710938 C 53.90625 61.03125 53.613281 61.261719 53.261719 61.351562 Z M 53.261719 61.351562 "/>
</clipPath>
<mask id="mask4">
  <g filter="url(#alpha)">
<rect x="0" y="0" width="344" height="125" style="fill:rgb(0%,0%,0%);fill-opacity:0.4;stroke:none;"/>
  </g>
</mask>
<clipPath id="clip11">
  <rect x="0" y="0" width="344" height="125"/>
</clipPath>
<g id="surface17" clip-path="url(#clip11)">
<path style=" stroke:none;fill-rule:nonzero;fill:rgb(2.745098%,75.686275%,94.901961%);fill-opacity:1;" d="M 105.765625 65.09375 C 105.765625 57.496094 104.324219 51.253906 101.9375 46.066406 C 102.167969 46.75 106.773438 61.175781 95.242188 72.726562 C 88.65625 79.316406 77.453125 81.601562 68.445312 74.390625 C 68.445312 74.390625 69.589844 92.488281 48.179688 95.15625 C 34.199219 96.898438 23.214844 87.980469 18.429688 76.613281 C 15.109375 68.714844 14.796875 59.613281 18.597656 52.113281 C 13.230469 62 15.257812 74.035156 16.417969 77.910156 C 22.183594 97.195312 39.902344 110.40625 60.007812 110.410156 C 85.136719 110.390625 105.765625 90.253906 105.765625 65.09375 Z M 105.765625 65.09375 "/>
</g>
<mask id="mask5">
  <g filter="url(#alpha)">
<rect x="0" y="0" width="344" height="125" style="fill:rgb(0%,0%,0%);fill-opacity:0.6;stroke:none;"/>
  </g>
</mask>
<clipPath id="clip12">
  <rect x="0" y="0" width="344" height="125"/>
</clipPath>
<g id="surface20" clip-path="url(#clip12)">
<path style=" stroke:none;fill-rule:nonzero;fill:rgb(2.745098%,75.686275%,94.901961%);fill-opacity:1;" d="M 101.144531 84.960938 C 98.769531 85.605469 80.171875 90.035156 68.445312 74.390625 C 68.445312 74.390625 73.90625 95.601562 50.695312 109.433594 C 71.105469 113.648438 91.796875 103.597656 101.121094 84.933594 Z M 101.144531 84.960938 "/>
</g>
<mask id="mask6">
  <g filter="url(#alpha)">
<rect x="0" y="0" width="344" height="125" style="fill:rgb(0%,0%,0%);fill-opacity:0.701961;stroke:none;"/>
  </g>
</mask>
<clipPath id="clip13">
  <rect x="0" y="0" width="344" height="125"/>
</clipPath>
<g id="surface23" clip-path="url(#clip13)">
<path style=" stroke:none;fill-rule:nonzero;fill:rgb(2.745098%,75.686275%,94.901961%);fill-opacity:1;" d="M 91.046875 98.371094 C 76.503906 90.871094 68.445312 74.371094 68.445312 74.371094 C 74.9375 90.199219 72.121094 102.554688 69.21875 109.449219 C 77.363281 107.804688 84.90625 103.972656 91.046875 98.371094 Z M 91.046875 98.371094 "/>
</g>
</defs>
<g id="surface1">
<path style=" stroke:none;fill-rule:nonzero;fill:rgb(2.745098%,75.686275%,94.901961%);fill-opacity:1;" d="M 131.480469 90.28125 C 129.183594 90.304688 126.914062 89.800781 124.84375 88.808594 C 122.820312 87.832031 121.035156 86.425781 119.609375 84.683594 C 118.070312 82.777344 116.898438 80.597656 116.167969 78.253906 C 114.507812 72.78125 114.507812 66.9375 116.167969 61.464844 C 116.902344 59.121094 118.070312 56.941406 119.609375 55.03125 C 121.035156 53.296875 122.820312 51.890625 124.84375 50.921875 C 129.054688 48.980469 133.898438 48.980469 138.109375 50.921875 C 140.132812 51.890625 141.917969 53.292969 143.339844 55.03125 C 144.882812 56.941406 146.050781 59.121094 146.785156 61.464844 C 148.445312 66.9375 148.445312 72.78125 146.785156 78.253906 C 146.050781 80.597656 144.882812 82.777344 143.339844 84.683594 C 141.917969 86.425781 140.132812 87.832031 138.109375 88.808594 C 136.039062 89.800781 133.773438 90.304688 131.480469 90.28125 Z M 131.480469 86.878906 C 133.246094 86.894531 134.996094 86.503906 136.589844 85.734375 C 138.195312 84.960938 139.589844 83.8125 140.660156 82.390625 C 141.863281 80.769531 142.753906 78.945312 143.292969 77 C 144.554688 72.320312 144.554688 67.386719 143.292969 62.703125 C 142.753906 60.773438 141.855469 58.960938 140.652344 57.359375 C 139.574219 55.949219 138.179688 54.8125 136.582031 54.039062 C 133.328125 52.519531 129.566406 52.519531 126.3125 54.039062 C 124.730469 54.824219 123.351562 55.957031 122.28125 57.359375 C 121.078125 58.964844 120.175781 60.773438 119.625 62.703125 C 118.347656 67.382812 118.347656 72.320312 119.625 77 C 120.179688 78.9375 121.078125 80.753906 122.28125 82.371094 C 123.347656 83.785156 124.726562 84.929688 126.3125 85.714844 C 127.921875 86.5 129.691406 86.898438 131.480469 86.878906 Z M 131.480469 86.878906 "/>
<path style=" stroke:none;fill-rule:nonzero;fill:rgb(2.745098%,75.686275%,94.901961%);fill-opacity:1;" d="M 154.894531 61.53125 L 158.550781 61.53125 L 158.550781 65.5 C 159.71875 64.28125 161.042969 63.222656 162.488281 62.351562 C 164.132812 61.402344 166.007812 60.9375 167.902344 61 C 169.445312 60.996094 170.972656 61.304688 172.394531 61.910156 C 173.804688 62.507812 175.054688 63.429688 176.050781 64.59375 C 177.144531 65.921875 177.972656 67.449219 178.480469 69.09375 C 179.128906 71.167969 179.441406 73.328125 179.402344 75.5 C 179.445312 77.675781 179.140625 79.84375 178.496094 81.921875 C 177.980469 83.574219 177.128906 85.105469 176 86.421875 C 174.96875 87.589844 173.683594 88.503906 172.246094 89.089844 C 170.757812 89.695312 169.164062 90 167.554688 89.984375 C 165.84375 90.007812 164.148438 89.597656 162.632812 88.796875 C 161.121094 87.980469 159.738281 86.9375 158.539062 85.703125 L 158.539062 100.15625 L 154.886719 100.15625 Z M 167.257812 86.929688 C 168.433594 86.941406 169.601562 86.714844 170.6875 86.253906 C 171.734375 85.804688 172.65625 85.097656 173.367188 84.203125 C 174.175781 83.164062 174.769531 81.976562 175.117188 80.703125 C 175.570312 79.023438 175.78125 77.28125 175.746094 75.539062 C 175.773438 73.835938 175.554688 72.140625 175.089844 70.5 C 174.71875 69.203125 174.097656 67.988281 173.253906 66.933594 C 172.523438 66.035156 171.597656 65.316406 170.546875 64.835938 C 169.511719 64.371094 168.390625 64.136719 167.257812 64.144531 C 165.625 64.117188 164.019531 64.550781 162.617188 65.390625 C 161.117188 66.328125 159.75 67.464844 158.550781 68.765625 L 158.550781 82.386719 C 159.753906 83.726562 161.160156 84.875 162.71875 85.785156 C 164.109375 86.550781 165.671875 86.945312 167.257812 86.929688 Z M 167.257812 86.929688 "/>
<path style=" stroke:none;fill-rule:nonzero;fill:rgb(2.745098%,75.686275%,94.901961%);fill-opacity:1;" d="M 196.992188 90.121094 C 195.394531 90.125 193.808594 89.808594 192.332031 89.191406 C 190.839844 88.558594 189.507812 87.597656 188.429688 86.386719 C 187.261719 85.042969 186.351562 83.496094 185.75 81.820312 C 185.035156 79.792969 184.691406 77.652344 184.730469 75.5 C 184.683594 73.300781 185.054688 71.113281 185.820312 69.050781 C 186.457031 67.371094 187.425781 65.839844 188.671875 64.550781 C 189.785156 63.402344 191.121094 62.5 192.59375 61.890625 C 193.984375 61.308594 195.476562 61.007812 196.984375 61.003906 C 198.546875 60.992188 200.097656 61.308594 201.53125 61.941406 C 202.929688 62.570312 204.160156 63.515625 205.132812 64.703125 C 206.214844 66.058594 207.03125 67.609375 207.527344 69.269531 C 208.148438 71.308594 208.445312 73.429688 208.410156 75.558594 L 208.410156 76.261719 L 188.421875 76.261719 C 188.394531 77.820312 188.632812 79.375 189.136719 80.855469 C 189.554688 82.085938 190.199219 83.230469 191.039062 84.226562 C 192.582031 86.039062 194.847656 87.074219 197.226562 87.054688 C 199.027344 87.132812 200.804688 86.679688 202.347656 85.746094 C 203.789062 84.742188 205.011719 83.445312 205.929688 81.945312 L 208.210938 83.761719 C 207.0625 85.636719 205.507812 87.230469 203.664062 88.429688 C 201.875 89.558594 199.652344 90.121094 196.992188 90.121094 Z M 204.871094 73.308594 C 204.761719 72.074219 204.523438 70.851562 204.160156 69.664062 C 203.839844 68.597656 203.332031 67.59375 202.660156 66.703125 C 202.023438 65.875 201.199219 65.210938 200.253906 64.761719 C 199.21875 64.289062 198.085938 64.054688 196.949219 64.074219 C 195.945312 64.070312 194.953125 64.261719 194.023438 64.628906 C 193.066406 65.019531 192.199219 65.597656 191.472656 66.328125 C 190.65625 67.160156 189.996094 68.132812 189.523438 69.199219 C 188.960938 70.503906 188.605469 71.894531 188.476562 73.308594 Z M 204.871094 73.308594 "/>
<path style=" stroke:none;fill-rule:nonzero;fill:rgb(2.745098%,75.686275%,94.901961%);fill-opacity:1;" d="M 215.3125 61.53125 L 218.960938 61.53125 L 218.960938 65.941406 C 220.351562 64.558594 221.925781 63.382812 223.640625 62.441406 C 225.480469 61.449219 227.542969 60.941406 229.632812 60.976562 C 232.398438 60.976562 234.472656 61.703125 235.863281 63.15625 C 237.25 64.609375 237.945312 66.648438 237.949219 69.28125 L 237.949219 89.515625 L 234.292969 89.515625 L 234.292969 69.964844 C 234.292969 67.988281 233.84375 66.523438 232.945312 65.566406 C 232.046875 64.609375 230.640625 64.128906 228.726562 64.125 C 226.964844 64.117188 225.226562 64.566406 223.683594 65.425781 C 221.960938 66.410156 220.371094 67.613281 218.957031 69.003906 L 218.957031 89.503906 L 215.308594 89.503906 Z M 215.3125 61.53125 "/>
<path style=" stroke:none;fill-rule:nonzero;fill:rgb(2.745098%,48.627451%,86.27451%);fill-opacity:1;" d="M 261.121094 90.175781 C 258.71875 90.222656 256.324219 89.855469 254.046875 89.085938 C 250.285156 87.816406 247.367188 84.804688 246.21875 81 C 245.570312 78.894531 245.257812 76.703125 245.285156 74.5 L 245.285156 50.195312 L 253.9375 50.195312 L 253.9375 74.269531 C 253.9375 77.140625 254.511719 79.335938 255.660156 80.859375 C 256.808594 82.382812 258.675781 83.144531 261.269531 83.144531 C 263.804688 83.144531 265.636719 82.382812 266.761719 80.859375 C 267.886719 79.335938 268.453125 77.140625 268.453125 74.269531 L 268.453125 50.195312 L 276.941406 50.195312 L 276.941406 74.425781 C 276.972656 76.644531 276.660156 78.851562 276.015625 80.976562 C 275.445312 82.828125 274.464844 84.527344 273.148438 85.945312 C 271.773438 87.367188 270.085938 88.445312 268.214844 89.085938 C 265.929688 89.855469 263.53125 90.222656 261.121094 90.175781 Z M 261.121094 90.175781 "/>
<path style=" stroke:none;fill-rule:nonzero;fill:rgb(2.745098%,48.627451%,86.27451%);fill-opacity:1;" d="M 284.820312 89.523438 L 284.820312 50.195312 L 293.417969 50.195312 L 293.417969 89.523438 Z M 284.820312 89.523438 "/>
<path style=" stroke:none;fill-rule:nonzero;fill:rgb(2.745098%,48.627451%,86.27451%);fill-opacity:1;" d="M 313.417969 90.28125 C 310.542969 90.34375 307.683594 89.863281 304.988281 88.863281 C 302.695312 87.972656 300.578125 86.6875 298.730469 85.066406 L 303.085938 79.378906 C 304.414062 80.582031 305.929688 81.554688 307.578125 82.261719 C 309.261719 83.011719 311.082031 83.402344 312.925781 83.398438 C 315.539062 83.398438 317.433594 82.75 318.613281 81.445312 C 319.824219 80.070312 320.460938 78.277344 320.390625 76.445312 C 320.390625 74.214844 319.816406 72.472656 318.667969 71.214844 C 317.519531 69.957031 315.828125 69.332031 313.597656 69.335938 C 312.261719 69.332031 310.941406 69.65625 309.753906 70.28125 C 308.457031 70.980469 307.316406 71.9375 306.398438 73.09375 L 300.828125 71.359375 L 302.410156 50.191406 L 326.242188 50.191406 L 325.800781 56.726562 L 309.015625 56.726562 L 308.261719 65.445312 C 309.128906 64.691406 310.132812 64.117188 311.21875 63.746094 C 312.824219 63.199219 314.515625 62.949219 316.210938 63.003906 C 318.089844 62.976562 319.953125 63.316406 321.703125 64.003906 C 323.210938 64.609375 324.574219 65.535156 325.695312 66.714844 C 326.796875 67.902344 327.628906 69.316406 328.132812 70.855469 C 328.691406 72.5625 328.96875 74.351562 328.945312 76.148438 C 328.96875 78.109375 328.609375 80.058594 327.886719 81.878906 C 327.203125 83.574219 326.15625 85.097656 324.816406 86.34375 C 323.398438 87.640625 321.722656 88.628906 319.90625 89.25 C 317.816406 89.960938 315.625 90.3125 313.417969 90.28125 Z M 313.417969 90.28125 "/>
<g clip-path="url(#clip1)" clip-rule="nonzero">
<g clip-path="url(#clip2)" clip-rule="nonzero">
<path style=" stroke:none;fill-rule:nonzero;fill:url(#linear0);" d="M 59.347656 14.71875 C 59.347656 14.71875 59.347656 18.71875 69.734375 25.023438 C 89.914062 37.300781 89.871094 48.558594 89.871094 50.921875 C 89.871094 60.953125 79.441406 67.421875 74.601562 62.191406 C 74.601562 62.191406 79.351562 58.691406 79.351562 53.234375 C 79.351562 53.234375 75.855469 55.535156 74.046875 55.929688 C 74.046875 55.929688 76.417969 51.730469 75.308594 44.359375 C 75.308594 44.359375 73.414062 48.085938 67.320312 51.09375 C 67.320312 51.09375 69.695312 45.785156 67.476562 40.714844 C 67.476562 40.714844 67.953125 47.054688 53.550781 53.789062 C 39.152344 60.523438 43.566406 67.289062 43.566406 67.289062 C 43.566406 67.289062 46.4375 64.234375 51.308594 66.378906 C 57.90625 69.28125 55.238281 80.921875 44.636719 80.921875 C 34.308594 80.921875 27.535156 69.679688 27.535156 60.921875 C 27.535156 57.289062 27.929688 50.609375 34.480469 43.265625 C 39.683594 37.375 46.101562 34.296875 47.480469 27.835938 C 40.347656 34.460938 27.460938 38.78125 19.820312 50.113281 C 12.945312 60.300781 15.179688 73.765625 16.417969 77.910156 C 22.183594 97.195312 39.902344 110.40625 60.007812 110.410156 C 85.136719 110.410156 105.765625 90.273438 105.765625 65.113281 C 105.765625 27 69.605469 22.953125 59.347656 14.71875 Z M 59.347656 14.71875 "/>
<use xlink:href="#surface5" mask="url(#mask0)"/>
<use xlink:href="#surface8" mask="url(#mask1)"/>
<use xlink:href="#surface11" mask="url(#mask2)"/>
<use xlink:href="#surface14" mask="url(#mask3)"/>
</g>
</g>
<g clip-path="url(#clip7)" clip-rule="nonzero">
<g clip-path="url(#clip8)" clip-rule="nonzero">
<path style=" stroke:none;fill-rule:nonzero;fill:rgb(2.745098%,75.686275%,94.901961%);fill-opacity:1;" d="M 46.457031 65.75 C 48.828125 65.113281 52.558594 64.464844 56.738281 62.304688 C 59.171875 61.058594 61.371094 59.394531 63.226562 57.386719 C 62.867188 57.386719 62.507812 57.386719 62.15625 57.355469 C 47.175781 56.5 43.585938 67.265625 43.585938 67.265625 C 44.238281 66.648438 45.023438 66.191406 45.882812 65.933594 C 46.042969 65.871094 46.238281 65.808594 46.457031 65.75 Z M 46.457031 65.75 "/>
</g>
</g>
<g clip-path="url(#clip9)" clip-rule="nonzero">
<g clip-path="url(#clip10)" clip-rule="nonzero">
<use xlink:href="#surface17" mask="url(#mask4)"/>
<use xlink:href="#surface20" mask="url(#mask5)"/>
<use xlink:href="#surface23" mask="url(#mask6)"/>
</g>
</g>
</g>
</svg>
