<?xml version="1.0" encoding="UTF-8"?>
<svg xmlns="http://www.w3.org/2000/svg" xmlns:xlink="http://www.w3.org/1999/xlink" width="px" height="px" viewBox="0 0 1250 625" version="1.1">
<g id="surface1">
<rect x="0" y="0" width="1250" height="625" style="fill:rgb(0%,0%,0%);fill-opacity:1;stroke:none;"/>
<path style=" stroke:none;fill-rule:evenodd;fill:rgb(100%,100%,100%);fill-opacity:1;" d="M 336.898438 239.699219 L 336.601562 155.648438 L 289.699219 155.648438 L 290 239.699219 L 313.449219 271.898438 Z M 290 383.75 L 290 468.101562 L 336.898438 468.101562 L 336.898438 383.75 L 313.449219 351.550781 Z M 290 383.75 "/>
<path style=" stroke:none;fill-rule:evenodd;fill:rgb(0%,94.901961%,90.196078%);fill-opacity:1;" d="M 336.898438 383.75 L 386.300781 451.898438 L 424.101562 424.398438 L 374.699219 356.25 L 336.898438 344.050781 Z M 290 239.699219 L 240.300781 171.550781 L 202.5 199.050781 L 251.898438 267.148438 L 290 279.351562 Z M 290 239.699219 "/>
<path style=" stroke:none;fill-rule:evenodd;fill:rgb(0%,72.54902%,94.509804%);fill-opacity:1;" d="M 251.898438 267.199219 L 171.898438 241.25 L 157.5 285.601562 L 237.5 311.851562 L 275.300781 299.351562 Z M 351.25 324.050781 L 374.699219 356.25 L 454.699219 382.199219 L 469.101562 337.851562 L 389.101562 311.898438 Z M 351.25 324.050781 "/>
<path style=" stroke:none;fill-rule:evenodd;fill:rgb(83.921569%,22.745098%,100%);fill-opacity:1;" d="M 389.050781 311.898438 L 469.050781 285.648438 L 454.648438 241.300781 L 374.648438 267.25 L 351.199219 299.449219 Z M 237.5 311.898438 L 157.5 337.851562 L 171.898438 382.199219 L 251.898438 356.25 L 275.351562 324.050781 Z M 237.5 311.898438 "/>
<path style=" stroke:none;fill-rule:evenodd;fill:rgb(98.431373%,0.392157%,35.686275%);fill-opacity:1;" d="M 251.898438 356.25 L 202.5 424.398438 L 240.300781 451.898438 L 290 383.75 L 290 344.050781 Z M 374.699219 267.199219 L 424.101562 199.050781 L 386.300781 171.550781 L 336.898438 239.648438 L 336.898438 279.351562 Z M 374.699219 267.199219 "/>
<path style=" stroke:none;fill-rule:evenodd;fill:rgb(100%,100%,100%);fill-opacity:1;" d="M 644.050781 235.300781 L 644.050781 344.648438 C 644.050781 368.699219 624.351562 388.398438 600.300781 388.398438 L 600.300781 366.5 C 612.5 366.5 622.199219 356.800781 622.199219 344.601562 L 622.199219 235.300781 Z M 1043.449219 257.199219 L 1092.800781 257.199219 L 1092.800781 235.351562 L 972.5 235.351562 L 972.5 257.199219 L 1021.550781 257.199219 L 1021.550781 388.449219 L 1043.449219 388.449219 Z M 906.550781 235.300781 L 906.550781 344.648438 C 906.550781 356.851562 896.851562 366.550781 884.648438 366.550781 C 872.449219 366.550781 862.75 356.851562 862.75 344.648438 L 862.75 279.050781 C 862.75 255 843.050781 235.300781 819 235.300781 C 794.949219 235.300781 775.25 255 775.25 279.050781 L 775.25 344.699219 C 775.25 356.898438 765.550781 366.601562 753.351562 366.601562 C 741.148438 366.601562 731.449219 356.898438 731.449219 344.699219 L 731.449219 235.300781 L 709.550781 235.300781 L 709.550781 344.648438 C 709.550781 368.699219 729.25 388.398438 753.300781 388.398438 C 777.351562 388.398438 797.050781 368.699219 797.050781 344.648438 L 797.050781 279.050781 C 797.050781 266.851562 806.75 257.148438 818.949219 257.148438 C 831.148438 257.148438 840.851562 266.851562 840.851562 279.050781 L 840.851562 344.699219 C 840.851562 368.75 860.550781 388.449219 884.601562 388.449219 C 908.648438 388.449219 928.351562 368.75 928.351562 344.699219 L 928.351562 235.300781 Z M 906.550781 235.300781 "/>
</g>
</svg>
