<?xml version="1.0" encoding="UTF-8"?>
<svg xmlns="http://www.w3.org/2000/svg" xmlns:xlink="http://www.w3.org/1999/xlink" width="px" height="px" viewBox="0 0 1012 1250" version="1.1">
<g id="surface1">
<path style="fill-rule:nonzero;fill:rgb(87.843137%,87.843137%,87.843137%);fill-opacity:1;stroke-width:10;stroke-linecap:butt;stroke-linejoin:miter;stroke:rgb(0.784314%,0.784314%,0.784314%);stroke-opacity:1;stroke-miterlimit:10;" d="M 227.820059 69.689643 L 227.820059 261.24989 L 60.179941 261.24989 L 60.179941 26.75011 L 191.659804 26.75011 Z M 227.820059 69.689643 " transform="matrix(4.863982,0,0,4.861578,-194.413342,-75.067288)"/>
<path style="fill-rule:nonzero;fill:rgb(100%,87.843137%,51.372549%);fill-opacity:1;stroke-width:10;stroke-linecap:butt;stroke-linejoin:miter;stroke:rgb(0.784314%,0.784314%,0.784314%);stroke-opacity:1;stroke-miterlimit:10;" d="M 39.97 129.77976 L 248.03 129.77976 L 248.03 222.080352 L 39.97 222.080352 Z M 39.97 129.77976 " transform="matrix(4.863982,0,0,4.861578,-194.413342,-75.067288)"/>
<path style=" stroke:none;fill-rule:nonzero;fill:rgb(100%,87.843137%,51.372549%);fill-opacity:1;" d="M 711.066406 63.488281 C 711.066406 63.488281 664.953125 342.6875 908.835938 278.273438 Z M 711.066406 63.488281 "/>
<path style=" stroke:none;fill-rule:nonzero;fill:rgb(0.784314%,0.784314%,0.784314%);fill-opacity:1;" d="M 696.523438 58.625 L 907.617188 296.308594 L 922.210938 269.667969 L 737.816406 54.980469 Z M 696.523438 58.625 "/>
<path style=" stroke:none;fill-rule:nonzero;fill:rgb(0.784314%,0.784314%,0.784314%);fill-opacity:1;" d="M 893.074219 279.925781 L 893.074219 282.9375 L 896.722656 282.988281 L 896.722656 278.125 L 893.074219 278.855469 Z M 893.074219 279.925781 "/>
<path style=" stroke:none;fill-rule:nonzero;fill:rgb(0.784314%,0.784314%,0.784314%);fill-opacity:1;" d="M 248.160156 239.332031 L 616.996094 239.332031 C 626.71875 239.332031 634.605469 247.199219 634.605469 256.90625 C 634.605469 266.613281 626.71875 274.480469 616.996094 274.480469 L 248.160156 274.480469 C 238.4375 274.480469 230.550781 266.613281 230.550781 256.90625 C 230.550781 247.199219 238.4375 239.332031 248.160156 239.332031 Z M 248.160156 239.332031 "/>
<path style=" stroke:none;fill-rule:nonzero;fill:rgb(0.784314%,0.784314%,0.784314%);fill-opacity:1;" d="M 247.527344 332.722656 L 764.472656 332.722656 C 773.847656 332.722656 781.449219 340.316406 781.449219 349.6875 L 781.449219 349.738281 C 781.449219 359.109375 773.847656 366.703125 764.472656 366.703125 L 247.527344 366.703125 C 238.152344 366.703125 230.550781 359.109375 230.550781 349.738281 L 230.550781 349.6875 C 230.550781 340.316406 238.152344 332.722656 247.527344 332.722656 Z M 247.527344 332.722656 "/>
<path style=" stroke:none;fill-rule:nonzero;fill:rgb(0.784314%,0.784314%,0.784314%);fill-opacity:1;" d="M 248.742188 422.464844 L 763.257812 422.464844 C 773.304688 422.464844 781.449219 430.605469 781.449219 440.648438 C 781.449219 450.691406 773.304688 458.832031 763.257812 458.832031 L 248.742188 458.832031 C 238.695312 458.832031 230.550781 450.691406 230.550781 440.648438 C 230.550781 430.605469 238.695312 422.464844 248.742188 422.464844 Z M 248.742188 422.464844 "/>
<path style="fill:none;stroke-width:10;stroke-linecap:butt;stroke-linejoin:miter;stroke:rgb(0.784314%,0.784314%,0.784314%);stroke-opacity:1;stroke-miterlimit:10;" d="M 186.659721 30.000244 C 186.659721 30.000244 176.660357 84.390373 224.329798 73.659708 " transform="matrix(4.863982,0,0,4.861578,-194.413342,-75.067288)"/>
<path style=" stroke:none;fill-rule:nonzero;fill:rgb(0.784314%,0.784314%,0.784314%);fill-opacity:1;" d="M 201.417969 674.734375 L 250.058594 674.734375 L 389.507812 884.558594 L 343.542969 884.558594 Z M 201.417969 674.734375 "/>
<path style=" stroke:none;fill-rule:nonzero;fill:rgb(0.784314%,0.784314%,0.784314%);fill-opacity:1;" d="M 334.933594 674.734375 L 194.65625 884.558594 L 247.578125 884.558594 L 389.507812 674.734375 Z M 416.164062 674.734375 L 477.691406 674.734375 L 519.328125 822.671875 L 556.441406 674.734375 L 620.402344 674.734375 L 620.402344 884.558594 L 583.484375 884.558594 L 582.460938 715.960938 L 541.652344 884.558594 L 497.390625 884.558594 L 456.242188 720.820312 L 455.511719 884.558594 L 416.164062 884.558594 Z M 667.191406 674.734375 L 709.023438 674.734375 L 709.023438 851.113281 L 816.078125 851.113281 L 816.078125 884.558594 L 667.191406 884.558594 Z M 667.191406 674.734375 "/>
</g>
</svg>
